<?xml version="1.0" encoding="utf-8"?>
<!-- Generator: Adobe Illustrator 26.4.1, SVG Export Plug-In . SVG Version: 6.00 Build 0)  -->
<svg version="1.1" id="Ebene_1" xmlns="http://www.w3.org/2000/svg" xmlns:xlink="http://www.w3.org/1999/xlink" x="0px" y="0px"
	 viewBox="0 0 255.1 85" style="enable-background:new 0 0 255.1 85;" xml:space="preserve">
<style type="text/css">
	.st0{fill:#E10019;}
	.st1{fill:#003063;}
	.st2{fill:#0087CD;}
	.st3{fill:#00C6F1;}
	.st4{fill:#F492A3;}
	.st5{fill:#50B9F9;}
</style>
<g>
	<g>
		<path class="st0" d="M84.9,28.7V83c0,1.1-0.8,2.1-1.8,2.1H1.8C0.8,85,0,84.1,0,83v-56L84.9,28.7z"/>
		<path class="st1" d="M84.9,28.7V83c0,1.1-0.5,2.1-1,2.1H38.3c-0.6,0-1-0.9-1-2.1v-56L84.9,28.7z"/>
		<g>
			<path class="st2" d="M6.6,7.4L6.6,7.4c8.7-9.9,22.7-9.8,31.2,0.3l34.8,41.6L41.2,85L6.3,43.5C-2.2,33.4-2.1,17.2,6.6,7.4z"/>
			<path class="st3" d="M11,12.5L11,12.5c6.4-7.3,16.7-7.2,23,0.2l34.5,41.2L45.3,80.3L10.8,39.1C4.5,31.7,4.6,19.8,11,12.5z"/>
		</g>
		<path class="st0" d="M6.6,7.4L6.6,7.4c8.7-9.9,22.7-9.8,31.2,0.3l34.8,41.6L41.2,85L6.3,43.5C-2.2,33.4-2.1,17.2,6.6,7.4z"/>
		<path class="st4" d="M11,12.5L11,12.5c6.4-7.3,16.7-7.2,23,0.2l34.5,41.2L45.3,80.3L10.8,39.1C4.5,31.7,4.6,19.8,11,12.5z"/>
		<path class="st1" d="M78.7,7.6L78.7,7.6c8.6,10.1,8.4,26.2-0.3,36.1L41.2,85l-31-36.4L47.5,7.3C56.2-2.6,70.1-2.4,78.7,7.6z"/>
		<polygon class="st1" points="10.2,48.6 10.2,85 41.2,85 41.2,60.2 		"/>
		<path class="st5" d="M74.3,12.7L74.3,12.7c6.3,7.4,6.2,19.3-0.2,26.6l-37,41L14.3,53.4l37-41C57.7,5.2,68,5.3,74.3,12.7z"/>
		<polygon class="st5" points="14.3,53.4 14.3,85 37.3,85 37.3,80.2 		"/>
	</g>
	<g>
		<g>
			<path class="st0" d="M104.1,14.7l3.6,10.2c0.6,1.7,1.1,3.2,1.5,4.7h0.1c0.4-1.5,0.9-3,1.5-4.7l3.5-10.2h3.5L110.7,33h-3.2
				l-6.9-18.2H104.1z"/>
			<path class="st0" d="M137.1,23.7c0,6.7-4.7,9.7-9.1,9.7c-4.9,0-8.7-3.6-8.7-9.4c0-6.1,4-9.7,9-9.7
				C133.6,14.3,137.1,18.1,137.1,23.7z M122.6,23.9c0,4,2.3,7,5.5,7c3.2,0,5.5-3,5.5-7.1c0-3.1-1.5-7-5.5-7
				C124.3,16.8,122.6,20.4,122.6,23.9z"/>
			<path class="st0" d="M142.2,14.7l4,10.8c0.4,1.2,0.9,2.6,1.2,3.7h0.1c0.3-1.1,0.7-2.5,1.2-3.8l3.6-10.7h3.5l-5,13
				c-2.4,6.3-4,9.5-6.3,11.4c-1.6,1.4-3.2,2-4.1,2.1l-0.8-2.8c0.8-0.3,1.9-0.8,2.9-1.6c0.9-0.7,2-2,2.8-3.7c0.2-0.3,0.3-0.6,0.3-0.8
				c0-0.2-0.1-0.5-0.2-0.9l-6.7-16.8H142.2z"/>
			<path class="st0" d="M171.4,28.6c0,1.6,0.1,3.1,0.3,4.4h-3l-0.3-2.3h-0.1c-1,1.4-3,2.7-5.6,2.7c-3.7,0-5.6-2.6-5.6-5.2
				c0-4.4,3.9-6.8,11-6.8V21c0-1.5-0.4-4.2-4.1-4.2c-1.7,0-3.5,0.5-4.7,1.4l-0.8-2.2c1.5-1,3.7-1.6,6-1.6c5.6,0,6.9,3.8,6.9,7.5
				V28.6z M168.2,23.7c-3.6-0.1-7.7,0.6-7.7,4.1c0,2.1,1.4,3.2,3.1,3.2c2.4,0,3.9-1.5,4.4-3.1c0.1-0.3,0.2-0.7,0.2-1.1V23.7z"/>
			<path class="st0" d="M192.3,30.3c0,4.2-0.8,6.7-2.6,8.3c-1.8,1.7-4.3,2.2-6.6,2.2c-2.2,0-4.6-0.5-6.1-1.5l0.8-2.5
				c1.2,0.8,3.1,1.4,5.3,1.4c3.4,0,5.9-1.8,5.9-6.4v-2H189c-1,1.7-3,3.1-5.8,3.1c-4.5,0-7.8-3.8-7.8-8.9c0-6.2,4-9.7,8.2-9.7
				c3.2,0,4.9,1.7,5.7,3.2h0.1l0.2-2.8h2.9c-0.1,1.3-0.2,2.8-0.2,5V30.3z M189.1,21.9c0-0.6,0-1.1-0.2-1.5c-0.6-1.9-2.2-3.5-4.6-3.5
				c-3.2,0-5.4,2.7-5.4,6.9c0,3.6,1.8,6.6,5.4,6.6c2,0,3.9-1.3,4.6-3.4c0.2-0.6,0.3-1.2,0.3-1.8V21.9z"/>
			<path class="st0" d="M199.7,24.5c0.1,4.5,2.9,6.3,6.3,6.3c2.4,0,3.8-0.4,5-0.9l0.6,2.4c-1.2,0.5-3.2,1.2-6.1,1.2
				c-5.6,0-9-3.7-9-9.2c0-5.5,3.2-9.8,8.6-9.8c6,0,7.5,5.2,7.5,8.6c0,0.7-0.1,1.2-0.1,1.5H199.7z M209.4,22.1c0-2.1-0.9-5.4-4.6-5.4
				c-3.4,0-4.8,3.1-5.1,5.4H209.4z"/>
			<path class="st0" d="M241.2,23.7c0,6.7-4.7,9.7-9.1,9.7c-4.9,0-8.7-3.6-8.7-9.4c0-6.1,4-9.7,9-9.7
				C237.7,14.3,241.2,18.1,241.2,23.7z M226.7,23.9c0,4,2.3,7,5.5,7c3.2,0,5.5-3,5.5-7.1c0-3.1-1.5-7-5.5-7
				C228.4,16.8,226.7,20.4,226.7,23.9z"/>
			<path class="st0" d="M245.7,33V17.3h-2.6v-2.5h2.6v-0.9c0-2.6,0.6-4.9,2.1-6.4c1.2-1.2,2.9-1.7,4.4-1.7c1.2,0,2.2,0.3,2.8,0.5
				l-0.5,2.6c-0.5-0.2-1.2-0.4-2.1-0.4c-2.8,0-3.5,2.5-3.5,5.3v1h4.4v2.5H249V33H245.7z"/>
		</g>
		<g>
			<path class="st1" d="M118.6,44.1v22c0,1.6,0,3.5,0.2,4.7h-3l-0.2-3.2h-0.1c-1,2-3.2,3.6-6.2,3.6c-4.4,0-7.8-3.7-7.8-9.3
				c0-6.1,3.7-9.8,8.2-9.8c2.8,0,4.7,1.3,5.5,2.8h0.1V44.1H118.6z M115.3,60.1c0-0.4,0-1-0.2-1.4c-0.5-2.1-2.3-3.8-4.8-3.8
				c-3.4,0-5.5,3-5.5,7c0,3.7,1.8,6.7,5.4,6.7c2.2,0,4.3-1.5,4.9-4c0.1-0.5,0.2-0.9,0.2-1.4V60.1z"/>
			<path class="st1" d="M127.8,47.5c0,1.1-0.8,2-2.1,2c-1.2,0-2-0.9-2-2c0-1.2,0.9-2.1,2.1-2.1C127,45.5,127.8,46.4,127.8,47.5z
				 M124.1,70.9V52.7h3.3v18.2H124.1z"/>
			<path class="st1" d="M132.5,67.5c1,0.6,2.7,1.3,4.4,1.3c2.4,0,3.5-1.2,3.5-2.7c0-1.6-0.9-2.4-3.4-3.4c-3.3-1.2-4.8-3-4.8-5.2
				c0-2.9,2.4-5.3,6.3-5.3c1.8,0,3.5,0.5,4.5,1.1l-0.8,2.4c-0.7-0.5-2-1.1-3.7-1.1c-2,0-3.1,1.1-3.1,2.5c0,1.5,1.1,2.2,3.5,3.1
				c3.2,1.2,4.8,2.8,4.8,5.5c0,3.2-2.5,5.5-6.8,5.5c-2,0-3.8-0.5-5.1-1.3L132.5,67.5z"/>
			<path class="st1" d="M160.9,70.2c-0.9,0.5-2.8,1.1-5.2,1.1c-5.5,0-9.1-3.8-9.1-9.3c0-5.6,3.8-9.7,9.8-9.7c2,0,3.7,0.5,4.6,0.9
				l-0.8,2.6c-0.8-0.5-2-0.9-3.8-0.9c-4.2,0-6.4,3.1-6.4,6.9c0,4.2,2.7,6.8,6.3,6.8c1.9,0,3.1-0.5,4.1-0.9L160.9,70.2z"/>
			<path class="st1" d="M181,61.6c0,6.7-4.7,9.7-9.1,9.7c-4.9,0-8.7-3.6-8.7-9.4c0-6.1,4-9.7,9-9.7C177.5,52.2,181,56,181,61.6z
				 M166.5,61.8c0,4,2.3,7,5.5,7c3.2,0,5.5-3,5.5-7.1c0-3.1-1.5-7-5.5-7C168.2,54.7,166.5,58.3,166.5,61.8z"/>
			<path class="st1" d="M186.2,52.7l3.6,10.2c0.6,1.7,1.1,3.2,1.5,4.7h0.1c0.4-1.5,0.9-3,1.5-4.7l3.5-10.2h3.5l-7.2,18.2h-3.2
				l-6.9-18.2H186.2z"/>
			<path class="st1" d="M204.5,62.4c0.1,4.5,2.9,6.3,6.3,6.3c2.4,0,3.8-0.4,5-0.9l0.6,2.4c-1.2,0.5-3.2,1.2-6.1,1.2
				c-5.6,0-9-3.7-9-9.2c0-5.5,3.2-9.8,8.6-9.8c6,0,7.5,5.2,7.5,8.6c0,0.7-0.1,1.2-0.1,1.5H204.5z M214.2,60c0-2.1-0.9-5.4-4.6-5.4
				c-3.4,0-4.8,3.1-5.1,5.4H214.2z"/>
			<path class="st1" d="M221.5,58.3c0-2.1,0-4-0.2-5.7h2.9l0.1,3.6h0.2c0.8-2.4,2.8-4,5-4c0.4,0,0.6,0,0.9,0.1v3.1
				c-0.3-0.1-0.7-0.1-1.1-0.1c-2.3,0-4,1.8-4.4,4.3c-0.1,0.5-0.2,1-0.2,1.5v9.7h-3.3V58.3z"/>
			<path class="st1" d="M236,52.7l4,10.8c0.4,1.2,0.9,2.6,1.2,3.7h0.1c0.3-1.1,0.7-2.5,1.2-3.8l3.6-10.7h3.5l-5,13
				c-2.4,6.3-4,9.5-6.3,11.4c-1.6,1.4-3.2,2-4.1,2.1l-0.8-2.8c0.8-0.3,1.9-0.8,2.9-1.6c0.9-0.7,2-2,2.8-3.7c0.2-0.3,0.3-0.6,0.3-0.8
				c0-0.2-0.1-0.5-0.2-0.9l-6.7-16.8H236z"/>
		</g>
	</g>
</g>
</svg>
