<?xml version="1.0" encoding="utf-8"?>
<!-- Generator: Adobe Illustrator 26.4.1, SVG Export Plug-In . SVG Version: 6.00 Build 0)  -->
<svg version="1.1" id="Ebene_1" xmlns="http://www.w3.org/2000/svg" xmlns:xlink="http://www.w3.org/1999/xlink" x="0px" y="0px"
	 viewBox="0 0 198.4 198.4" style="enable-background:new 0 0 198.4 198.4;" xml:space="preserve">
<style type="text/css">
	.st0{fill-rule:evenodd;clip-rule:evenodd;fill:#50B9F9;}
	.st1{fill-rule:evenodd;clip-rule:evenodd;fill:#003063;}
	.st2{fill-rule:evenodd;clip-rule:evenodd;fill:#FFFFFF;}
</style>
<g>
	<path class="st0" d="M99.2,191.5c50.8,0,92.3-41.4,92.3-92.3C191.5,48.4,150,7,99.2,7C48.4,7,7,48.4,7,99.2
		C7,150,48.4,191.5,99.2,191.5z"/>
	<path class="st1" d="M176,162c14-17.1,22.4-39,22.4-62.8c0-27.4-11.1-52.2-29.1-70.2C151.4,11.1,126.6,0,99.2,0
		C71.8,0,47,11.1,29.1,29.1C11.1,47,0,71.8,0,99.2c0,27.4,11.1,52.2,29.1,70.2c18,18,42.8,29.1,70.2,29.1
		c27.4,0,52.2-11.1,70.2-29.1c2.2-2.2,4.3-4.5,6.3-7h0.3V162z M166.2,157.1H143c6.4-16.2,10.2-36.2,10.2-57.9
		c0-19.6-3.1-37.8-8.4-53.1h25.4c11.1,14.8,17.7,33.2,17.7,53.1C187.8,121.3,179.6,141.5,166.2,157.1z M106.4,187.5
		c-0.9,0.1-1.8,0.2-2.8,0.2v-25.3h27.2c-0.2,0.4-0.4,0.8-0.6,1.1C123.8,175.9,115.5,184.4,106.4,187.5z M60.3,167.7
		c3.1,5.9,6.7,11.1,10.5,15.4c-12.8-4.3-24.2-11.5-33.6-20.7h20.6C58.6,164.2,59.4,166,60.3,167.7z M68.1,163.5
		c-0.2-0.4-0.4-0.8-0.6-1.1h27.2v25.3c-0.9,0-1.8-0.1-2.8-0.2C82.9,184.4,74.6,175.9,68.1,163.5z M63.1,46.1h31.6v111H65
		c-6.8-15.7-10.9-35.8-10.9-57.9C54.2,79.3,57.5,61,63.1,46.1z M92,11c0.9-0.1,1.8-0.2,2.7-0.2v30H65.3c0.9-2,1.8-4,2.8-5.9
		C74.6,22.6,82.9,14,92,11z M130.3,34.9c1,1.9,1.9,3.9,2.8,5.9h-29.5v-30c0.9,0,1.8,0.1,2.7,0.2C115.5,14,123.8,22.6,130.3,34.9z
		 M103.7,157.1v-111h31.6c5.6,14.9,9,33.2,9,53.1c0,22-4.1,42.2-10.9,57.9H103.7z M165.7,40.8h-23c-1.4-3.5-3-6.9-4.6-10
		c-3.1-5.9-6.7-11.1-10.5-15.4c13,4.4,24.7,11.7,34.2,21.3C163.2,37.9,164.5,39.4,165.7,40.8z M70.8,15.3
		c-3.9,4.3-7.4,9.5-10.5,15.4c-1.7,3.1-3.2,6.5-4.6,10h-23c1.3-1.4,2.5-2.8,3.9-4.2C46.1,27.1,57.8,19.7,70.8,15.3z M10.7,99.2
		c0-19.9,6.6-38.3,17.7-53.1h25.4c-5.3,15.3-8.4,33.5-8.4,53.1c0,21.6,3.8,41.7,10.2,57.9h-23v0.3C18.9,141.8,10.7,121.5,10.7,99.2z
		 M127.6,183.1c3.9-4.3,7.4-9.5,10.5-15.4c0.9-1.7,1.7-3.5,2.6-5.3h20.6C151.8,171.6,140.4,178.8,127.6,183.1z"/>
	<path class="st2" d="M99.2,176v-88c0-32.4-62.6-65.3-93.9-50.9v88C36.6,110.7,99.2,143.6,99.2,176z"/>
	<path class="st2" d="M99.2,176v-88c0-32.4,62.6-65.3,93.9-50.9v88C161.8,110.7,99.2,143.6,99.2,176z"/>
	<path class="st1" d="M198.4,37.1c0-2-1.1-3.9-3.1-4.8c-5.9-2.7-12.8-4-20-4c-14.7,0-31.3,5.2-45.7,13.3
		c-13,7.4-24.2,17.3-30.4,28.1C93,58.9,81.8,49,68.8,41.6c-14.3-8.1-31-13.3-45.7-13.3c-7.2,0-14,1.2-20,4C1.2,33.2,0,35.1,0,37.1h0
		v88c0,2.9,2.4,5.3,5.3,5.3c0.9,0,1.8-0.2,2.5-0.6c4.4-2,9.6-2.9,15.2-2.9c12.9,0,27.6,4.6,40.4,11.9c12.7,7.2,23.2,16.8,27.9,26.9
		c1.6,3.4,2.4,6.9,2.4,10.3v15.4h10.7c0-0.9,0.1-17.2,0.2-18c0.3-2.5,1.1-5.1,2.3-7.6c4.7-10.1,15.3-19.8,27.9-26.9
		c12.8-7.3,27.6-11.9,40.4-11.9c5.6,0,10.8,0.9,15.2,2.9c0.7,0.4,1.6,0.6,2.5,0.6c2.9,0,5.3-2.4,5.3-5.3L198.4,37.1L198.4,37.1z
		 M68.8,129.6c-14.3-8.1-31-13.3-45.7-13.3c-4.3,0-8.5,0.4-12.4,1.4V40.8c3.7-1.2,7.9-1.8,12.4-1.8c12.9,0,27.6,4.6,40.4,11.9
		C76.2,58,86.8,67.7,91.4,77.8c1.4,2.9,2.1,5.9,2.3,8.8c-4.9-6.4-11.4-12.3-18.9-17.3C59.5,58.9,40,51.9,23.1,51.9v0
		c-0.4,0-1,0-1.9,0l0.2,7.1c0.3,0,0.9,0,1.7,0v0c15.4,0,33.5,6.5,47.8,16.2c10.8,7.3,19.4,16.3,22.9,25.7v7.7
		c-4.9-6.4-11.4-12.4-19-17.5C59.5,80.7,40,73.7,23.1,73.7v0c-0.4,0-1,0-1.9,0l0.2,7.1c0.3,0,0.9,0,1.7,0v0
		c15.4,0,33.5,6.5,47.8,16.2c10.8,7.3,19.4,16.3,22.9,25.7v7.7c-4.9-6.4-11.4-12.4-19-17.5c-15.4-10.4-35-17.4-51.8-17.4v0
		c-0.4,0-1,0-1.9,0l0.2,7.1c0.3,0,0.9,0,1.7,0v0c15.4,0,33.5,6.5,47.8,16.2c10.8,7.3,19.4,16.3,22.9,25.7v5.6
		C87.5,142.2,78.7,135.2,68.8,129.6z M187.7,117.7c-3.9-0.9-8.1-1.4-12.4-1.4c-14.7,0-31.3,5.2-45.7,13.3
		c-9.9,5.6-18.7,12.6-25.1,20.4v-5.6c3.5-9.2,12-18.1,22.6-25.4c14.4-9.8,32.6-16.4,48.2-16.4v0h0.5l0-7.1h-0.5l0,0
		c-17,0-36.7,7.1-52.2,17.6c-7.4,5-13.8,10.9-18.6,17.2v-7.8c3.5-9.2,12-18.1,22.6-25.4c14.4-9.8,32.6-16.4,48.2-16.4v0h0.5l0-7.1
		l-0.5,0l0,0c-17,0-36.7,7.1-52.2,17.6c-7.4,5-13.8,10.9-18.6,17.2v-7.8c3.5-9.2,12-18.1,22.6-25.4c14.4-9.8,32.6-16.4,48.2-16.4v0
		h0.5l0-7.1h-0.5l0,0c-17,0-36.7,7.1-52.2,17.6c-7.3,5-13.7,10.8-18.5,17.1c0.2-2.9,1-5.9,2.3-8.8c4.7-10.1,15.3-19.8,27.9-26.9
		c12.8-7.3,27.6-11.9,40.4-11.9c4.5,0,8.7,0.6,12.4,1.8V117.7z"/>
</g>
</svg>
