<?xml version="1.0" encoding="utf-8"?>
<!-- Generator: Adobe Illustrator 26.4.1, SVG Export Plug-In . SVG Version: 6.00 Build 0)  -->
<svg version="1.1" id="Ebene_1" xmlns="http://www.w3.org/2000/svg" xmlns:xlink="http://www.w3.org/1999/xlink" x="0px" y="0px"
	 viewBox="0 0 218.3 198.4" style="enable-background:new 0 0 218.3 198.4;" xml:space="preserve">
<style type="text/css">
	.st0{fill-rule:evenodd;clip-rule:evenodd;fill:#003063;}
	.st1{fill-rule:evenodd;clip-rule:evenodd;fill:#50B9F9;}
	.st2{fill-rule:evenodd;clip-rule:evenodd;fill:#E10019;}
	.st3{fill:#FFFFFF;}
</style>
<g>
	<path class="st0" d="M27.3,179.2h182.3c5.4,0,7.5-2.9,7.4-5.6c-0.1-2.9-2.7-5.6-7.1-5.6H45.8c-28.1,0-28.1-41.2,0-41.2h172.5V27
		c0-14.9-12.3-27-27.3-27H27.3C12.3,0,0,12.2,0,27v125.1C0,167,12.3,179.2,27.3,179.2z"/>
	<path class="st1" d="M52.9,158.3c-2.4,0-4.4-2-4.4-4.4s2-4.4,4.4-4.4h143.1c2.4,0,4.4,2,4.4,4.4s-2,4.4-4.4,4.4H52.9z"/>
	<polygon class="st2" points="48.5,138.4 84.7,138.4 84.7,198.4 66,188.2 48.5,198.4 	"/>
	<path class="st1" d="M52.9,142.3c-2.4,0-4.4-2-4.4-4.4c0-2.4,2-4.4,4.4-4.4h143.1c2.4,0,4.4,2,4.4,4.4c0,2.4-2,4.4-4.4,4.4H52.9z"
		/>
	<g>
		<path class="st3" d="M30.8,57V37.8l-2.1-0.3c-0.4-0.1-0.8-0.2-1.1-0.5c-0.3-0.2-0.4-0.5-0.4-1v-2.3h3.5V32c0-1.3,0.2-2.5,0.6-3.6
			c0.4-1.1,1-2,1.8-2.7c0.8-0.7,1.7-1.3,2.8-1.7c1.1-0.4,2.3-0.6,3.7-0.6c1.1,0,2.1,0.1,3,0.4l-0.1,2.8c0,0.4-0.2,0.7-0.6,0.8
			c-0.4,0.1-0.8,0.2-1.3,0.2c-0.7,0-1.3,0.1-1.8,0.2c-0.5,0.1-1,0.4-1.4,0.8c-0.4,0.4-0.7,0.8-0.8,1.4c-0.2,0.6-0.3,1.3-0.3,2.2v1.6
			h6.2v4h-6V57H30.8z"/>
		<path class="st3" d="M64.5,57h-2.6c-0.5,0-1-0.1-1.3-0.2c-0.3-0.2-0.5-0.5-0.7-1l-0.5-1.7c-0.6,0.5-1.2,1-1.8,1.4
			c-0.6,0.4-1.2,0.7-1.8,1c-0.6,0.3-1.3,0.5-2,0.6c-0.7,0.1-1.5,0.2-2.3,0.2c-1,0-1.9-0.1-2.8-0.4c-0.8-0.3-1.6-0.7-2.2-1.2
			s-1.1-1.2-1.4-2c-0.3-0.8-0.5-1.7-0.5-2.8c0-0.9,0.2-1.8,0.7-2.6c0.5-0.9,1.3-1.6,2.3-2.3c1.1-0.7,2.5-1.3,4.4-1.7
			c1.8-0.5,4.1-0.7,6.8-0.7v-1.4c0-1.6-0.3-2.8-1-3.5c-0.7-0.8-1.6-1.1-2.9-1.1c-0.9,0-1.7,0.1-2.3,0.3c-0.6,0.2-1.2,0.5-1.6,0.7
			c-0.5,0.3-0.9,0.5-1.3,0.7c-0.4,0.2-0.8,0.3-1.3,0.3c-0.4,0-0.7-0.1-1-0.3c-0.3-0.2-0.5-0.4-0.7-0.7l-1-1.8c2.7-2.5,6-3.7,9.9-3.7
			c1.4,0,2.6,0.2,3.7,0.7c1.1,0.4,2,1.1,2.8,1.9c0.8,0.8,1.3,1.8,1.7,2.9c0.4,1.1,0.6,2.3,0.6,3.7V57z M53.4,53.5
			c0.6,0,1.1-0.1,1.6-0.2c0.5-0.1,1-0.3,1.4-0.5s0.9-0.5,1.3-0.8c0.4-0.3,0.8-0.7,1.2-1.1v-3.9c-1.7,0-3.1,0.1-4.2,0.3
			s-2,0.5-2.7,0.8c-0.7,0.3-1.2,0.7-1.4,1.1c-0.3,0.4-0.4,0.9-0.4,1.4c0,1,0.3,1.7,0.9,2.1C51.7,53.3,52.5,53.5,53.4,53.5z"/>
		<path class="st3" d="M81.2,57H76l-9.4-23.4h4.7c0.4,0,0.8,0.1,1.1,0.3c0.3,0.2,0.5,0.4,0.6,0.8l4.6,12.5c0.3,0.7,0.5,1.4,0.7,2.1
			c0.2,0.7,0.3,1.4,0.5,2.1c0.1-0.7,0.3-1.4,0.5-2.1c0.2-0.7,0.4-1.4,0.7-2.1l4.7-12.5c0.1-0.3,0.3-0.6,0.6-0.8
			c0.3-0.2,0.6-0.3,1-0.3h4.5L81.2,57z"/>
		<path class="st3" d="M103.3,33.2c1.8,0,3.4,0.3,4.8,0.8c1.4,0.6,2.7,1.4,3.7,2.4c1,1,1.8,2.3,2.4,3.8c0.6,1.5,0.8,3.2,0.8,5
			c0,1.9-0.3,3.5-0.8,5c-0.6,1.5-1.3,2.8-2.4,3.8c-1,1.1-2.2,1.9-3.7,2.4c-1.4,0.6-3,0.8-4.8,0.8c-1.8,0-3.4-0.3-4.8-0.8
			c-1.4-0.6-2.7-1.4-3.7-2.4c-1-1.1-1.8-2.3-2.4-3.8c-0.6-1.5-0.8-3.2-0.8-5c0-1.8,0.3-3.5,0.8-5c0.6-1.5,1.4-2.8,2.4-3.8
			c1-1,2.3-1.8,3.7-2.4C99.9,33.5,101.5,33.2,103.3,33.2z M103.3,53c2,0,3.4-0.7,4.4-2c0.9-1.3,1.4-3.2,1.4-5.8
			c0-2.5-0.5-4.5-1.4-5.8c-0.9-1.3-2.4-2-4.4-2c-2,0-3.5,0.7-4.4,2c-1,1.3-1.4,3.3-1.4,5.8s0.5,4.4,1.4,5.7
			C99.8,52.3,101.3,53,103.3,53z"/>
		<path class="st3" d="M119.4,57V33.6h3.3c0.6,0,1,0.1,1.2,0.3c0.2,0.2,0.4,0.6,0.5,1.1l0.3,2.8c0.8-1.4,1.8-2.6,3-3.4
			c1.1-0.8,2.4-1.3,3.8-1.3c1.2,0,2.1,0.3,2.9,0.8l-0.7,4.2c0,0.3-0.1,0.5-0.3,0.6c-0.2,0.1-0.4,0.2-0.6,0.2c-0.2,0-0.5-0.1-0.9-0.2
			c-0.4-0.1-0.9-0.2-1.6-0.2c-1.2,0-2.2,0.3-3,1c-0.8,0.6-1.6,1.6-2.1,2.8V57H119.4z"/>
		<path class="st3" d="M145.2,26.7c0,0.5-0.1,0.9-0.3,1.4c-0.2,0.4-0.5,0.8-0.8,1.1c-0.3,0.3-0.7,0.6-1.2,0.8
			c-0.4,0.2-0.9,0.3-1.4,0.3c-0.5,0-1-0.1-1.4-0.3c-0.4-0.2-0.8-0.4-1.1-0.8s-0.6-0.7-0.8-1.1c-0.2-0.4-0.3-0.9-0.3-1.4
			c0-0.5,0.1-1,0.3-1.4c0.2-0.4,0.5-0.8,0.8-1.1c0.3-0.3,0.7-0.6,1.1-0.8c0.4-0.2,0.9-0.3,1.4-0.3c0.5,0,1,0.1,1.4,0.3
			c0.4,0.2,0.8,0.4,1.2,0.8c0.3,0.3,0.6,0.7,0.8,1.1S145.2,26.2,145.2,26.7z M144.3,33.6V57h-5.7V33.6H144.3z"/>
		<path class="st3" d="M158.6,57.4c-2,0-3.6-0.6-4.7-1.7c-1.1-1.1-1.7-2.7-1.7-4.8V37.8h-2.4c-0.3,0-0.6-0.1-0.8-0.3
			c-0.2-0.2-0.3-0.5-0.3-0.9v-2.2l3.8-0.6l1.2-6.4c0.1-0.3,0.2-0.5,0.4-0.7c0.2-0.2,0.5-0.3,0.8-0.3h3v7.4h6.2v4h-6.2v12.7
			c0,0.7,0.2,1.3,0.6,1.7c0.4,0.4,0.9,0.6,1.5,0.6c0.4,0,0.7,0,0.9-0.1c0.2-0.1,0.4-0.2,0.6-0.3c0.2-0.1,0.3-0.2,0.5-0.3
			c0.1-0.1,0.3-0.1,0.4-0.1c0.2,0,0.3,0,0.4,0.1c0.1,0.1,0.2,0.2,0.3,0.4l1.7,2.7c-0.8,0.7-1.8,1.2-2.9,1.6
			C160.8,57.2,159.7,57.4,158.6,57.4z"/>
		<path class="st3" d="M178.4,33.2c1.5,0,2.9,0.2,4.1,0.7c1.3,0.5,2.3,1.2,3.2,2.1c0.9,0.9,1.6,2,2.1,3.3c0.5,1.3,0.8,2.8,0.8,4.5
			c0,0.4,0,0.8-0.1,1.1c0,0.3-0.1,0.5-0.2,0.7c-0.1,0.2-0.2,0.3-0.4,0.3c-0.2,0.1-0.4,0.1-0.6,0.1h-14.6c0.2,2.4,0.8,4.2,2,5.3
			c1.1,1.1,2.6,1.7,4.5,1.7c0.9,0,1.7-0.1,2.4-0.3c0.7-0.2,1.3-0.4,1.8-0.7c0.5-0.3,0.9-0.5,1.3-0.7s0.7-0.3,1.1-0.3
			c0.2,0,0.4,0,0.6,0.1c0.2,0.1,0.3,0.2,0.4,0.4l1.7,2.1c-0.6,0.7-1.3,1.3-2.1,1.8c-0.8,0.5-1.6,0.9-2.5,1.2s-1.7,0.5-2.6,0.6
			c-0.9,0.1-1.7,0.2-2.6,0.2c-1.6,0-3.2-0.3-4.6-0.8c-1.4-0.5-2.6-1.3-3.7-2.4c-1-1.1-1.9-2.4-2.5-3.9c-0.6-1.6-0.9-3.4-0.9-5.4
			c0-1.6,0.3-3.1,0.8-4.5c0.5-1.4,1.3-2.6,2.3-3.7c1-1,2.2-1.9,3.6-2.5C175.1,33.5,176.7,33.2,178.4,33.2z M178.6,37.2
			c-1.7,0-3,0.5-3.9,1.4c-0.9,0.9-1.5,2.2-1.8,4h10.7c0-0.7-0.1-1.4-0.3-2.1c-0.2-0.6-0.5-1.2-0.9-1.7c-0.4-0.5-0.9-0.9-1.6-1.2
			C180.1,37.4,179.4,37.2,178.6,37.2z"/>
		<path class="st3" d="M37.7,62v40.7h-6.8V62H37.7z"/>
		<path class="st3" d="M53.7,66.4c0,0.6-0.1,1.1-0.4,1.6c-0.2,0.5-0.6,1-1,1.3C52,69.7,51.5,70,51,70.3c-0.5,0.2-1.1,0.3-1.7,0.3
			c-0.6,0-1.1-0.1-1.7-0.3c-0.5-0.2-1-0.5-1.4-0.9c-0.4-0.4-0.7-0.8-0.9-1.3c-0.2-0.5-0.3-1.1-0.3-1.6c0-0.6,0.1-1.2,0.3-1.7
			c0.2-0.5,0.5-1,0.9-1.4c0.4-0.4,0.8-0.7,1.4-0.9c0.5-0.2,1.1-0.3,1.7-0.3c0.6,0,1.2,0.1,1.7,0.3c0.5,0.2,1,0.5,1.4,0.9
			c0.4,0.4,0.7,0.8,1,1.4C53.6,65.2,53.7,65.8,53.7,66.4z M52.7,74.6v28.1h-6.8V74.6H52.7z"/>
		<path class="st3" d="M60.5,102.7V62h6.8V78c1.1-1.2,2.4-2.1,3.8-2.8c1.4-0.7,3.1-1.1,5-1.1c1.6,0,3,0.3,4.3,0.9
			c1.3,0.6,2.4,1.5,3.3,2.8c0.9,1.2,1.7,2.7,2.2,4.5c0.5,1.8,0.8,3.8,0.8,6.1c0,2.1-0.3,4-0.9,5.8c-0.6,1.8-1.4,3.3-2.5,4.7
			c-1.1,1.3-2.3,2.3-3.9,3.1c-1.5,0.7-3.2,1.1-5.1,1.1c-0.9,0-1.7-0.1-2.4-0.3c-0.7-0.2-1.4-0.4-2-0.7c-0.6-0.3-1.1-0.7-1.6-1.1
			c-0.5-0.4-1-0.9-1.5-1.5l-0.3,1.9c-0.1,0.5-0.3,0.8-0.6,1c-0.3,0.2-0.6,0.3-1.1,0.3H60.5z M73.8,79.4c-1.4,0-2.6,0.3-3.6,0.9
			c-1,0.6-1.9,1.4-2.8,2.5v12.6c0.8,1,1.6,1.6,2.5,2c0.9,0.4,1.9,0.6,3,0.6c1,0,2-0.2,2.8-0.6c0.8-0.4,1.5-1,2.1-1.8
			c0.6-0.8,1-1.8,1.3-3c0.3-1.2,0.5-2.6,0.5-4.2c0-1.6-0.1-3-0.4-4.2c-0.3-1.1-0.7-2.1-1.1-2.8s-1.1-1.2-1.8-1.6
			C75.5,79.6,74.7,79.4,73.8,79.4z"/>
		<path class="st3" d="M92,102.7V74.6h4c0.7,0,1.2,0.1,1.5,0.4c0.3,0.3,0.5,0.7,0.6,1.3l0.4,3.4c1-1.7,2.2-3.1,3.6-4.1
			c1.4-1,2.9-1.5,4.6-1.5c1.4,0,2.6,0.3,3.5,1l-0.9,5.1c-0.1,0.3-0.2,0.6-0.4,0.7c-0.2,0.1-0.4,0.2-0.7,0.2c-0.3,0-0.7-0.1-1.1-0.2
			c-0.5-0.1-1.1-0.2-1.9-0.2c-1.4,0-2.6,0.4-3.7,1.2c-1,0.8-1.9,1.9-2.6,3.4v17.5H92z"/>
		<path class="st3" d="M136.1,102.7H133c-0.6,0-1.2-0.1-1.5-0.3s-0.6-0.6-0.8-1.2l-0.6-2c-0.7,0.6-1.4,1.2-2.1,1.7
			c-0.7,0.5-1.4,0.9-2.1,1.2c-0.7,0.3-1.5,0.6-2.4,0.7c-0.8,0.2-1.8,0.2-2.8,0.2c-1.2,0-2.3-0.2-3.3-0.5c-1-0.3-1.9-0.8-2.6-1.4
			s-1.3-1.4-1.7-2.4c-0.4-1-0.6-2.1-0.6-3.3c0-1.1,0.3-2.1,0.8-3.1c0.6-1,1.5-2,2.8-2.8c1.3-0.8,3.1-1.5,5.2-2.1
			c2.2-0.5,4.9-0.8,8.1-0.8V85c0-1.9-0.4-3.3-1.2-4.2c-0.8-0.9-2-1.4-3.5-1.4c-1.1,0-2,0.1-2.8,0.4c-0.7,0.3-1.4,0.5-1.9,0.9
			c-0.5,0.3-1,0.6-1.5,0.9c-0.5,0.3-1,0.4-1.5,0.4c-0.5,0-0.9-0.1-1.2-0.4c-0.3-0.2-0.6-0.5-0.8-0.9l-1.2-2.2
			c3.3-3,7.2-4.4,11.8-4.4c1.7,0,3.1,0.3,4.4,0.8c1.3,0.5,2.4,1.3,3.3,2.2c0.9,1,1.6,2.1,2.1,3.4c0.5,1.3,0.7,2.8,0.7,4.4V102.7z
			 M122.8,98.5c0.7,0,1.3-0.1,1.9-0.2c0.6-0.1,1.1-0.3,1.7-0.6c0.5-0.3,1-0.6,1.5-0.9c0.5-0.4,1-0.8,1.5-1.3v-4.7
			c-2,0-3.7,0.1-5,0.4c-1.3,0.2-2.4,0.6-3.2,1c-0.8,0.4-1.4,0.8-1.7,1.4c-0.3,0.5-0.5,1.1-0.5,1.7c0,1.2,0.4,2.1,1.1,2.6
			C120.7,98.2,121.6,98.5,122.8,98.5z"/>
		<path class="st3" d="M142.8,102.7V74.6h4c0.7,0,1.2,0.1,1.5,0.4c0.3,0.3,0.5,0.7,0.6,1.3l0.4,3.4c1-1.7,2.2-3.1,3.6-4.1
			c1.4-1,2.9-1.5,4.6-1.5c1.4,0,2.6,0.3,3.5,1l-0.9,5.1c-0.1,0.3-0.2,0.6-0.4,0.7c-0.2,0.1-0.4,0.2-0.7,0.2c-0.3,0-0.7-0.1-1.1-0.2
			c-0.5-0.1-1.1-0.2-1.9-0.2c-1.4,0-2.6,0.4-3.7,1.2c-1,0.8-1.9,1.9-2.6,3.4v17.5H142.8z"/>
		<path class="st3" d="M175.5,110.4c-0.2,0.5-0.5,0.8-0.8,1.1c-0.3,0.2-0.8,0.4-1.5,0.4h-5.1l5.3-11.3l-11.5-26h6
			c0.6,0,1,0.1,1.3,0.4c0.3,0.3,0.5,0.5,0.7,0.9l6.1,14.6c0.2,0.5,0.4,1,0.5,1.5c0.1,0.5,0.3,1,0.4,1.5c0.1-0.5,0.3-1,0.5-1.5
			c0.2-0.5,0.4-1,0.6-1.5l5.7-14.6c0.1-0.4,0.4-0.7,0.7-0.9c0.3-0.2,0.7-0.4,1.1-0.4h5.5L175.5,110.4z"/>
	</g>
</g>
</svg>
