<?xml version="1.0" encoding="utf-8"?>
<!-- Generator: Adobe Illustrator 24.0.1, SVG Export Plug-In . SVG Version: 6.00 Build 0)  -->
<svg version="1.1" id="Ebene_1" xmlns="http://www.w3.org/2000/svg" xmlns:xlink="http://www.w3.org/1999/xlink" x="0px" y="0px"
	 viewBox="0 0 144.6 39" style="enable-background:new 0 0 144.6 39;" xml:space="preserve">
<style type="text/css">
	.st0{fill:#3C8CD2;}
</style>
<g>
	<path class="st0" d="M79.7,23.8c0,3.8-1.2,8.3-7,8.3h-2.4c-4.5,0-7.1-3-7.1-8.4V11.2h-4.5v12.6c0,7.9,4.4,12.8,11.5,12.8h2.4
		c7.1,0,11.5-4.9,11.5-12.8V11.2h-4.5V23.8z"/>
	<path class="st0" d="M29.5,22.7v2.4c0,7.1,4.9,11.5,12.8,11.5h12.6v-4.5H42.2c-3.8,0-8.3-1.2-8.3-7v-2.4c0-4.5,3-7.1,8.4-7.1h12.6
		v-4.5H42.3C34.4,11.2,29.5,15.6,29.5,22.7z"/>
	<path class="st0" d="M14.7,11.2h-2.4c-7.1,0-11.5,4.9-11.5,12.8v12.6h4.5V23.9c0-3.8,1.2-8.3,7-8.3h2.4c4.5,0,7.1,3,7.1,8.4v12.6
		h4.5V23.9C26.2,16.1,21.8,11.2,14.7,11.2z"/>
	<path class="st0" d="M5.3,11.2V0.8H0.9v15.6C1.9,14,3.6,12.2,5.3,11.2z"/>
	<path class="st0" d="M135.7,19.2h0.9c0.1,0,0.2,0,0.3-0.1c0.1,0,0.1-0.1,0.1-0.2l2.5-5.9h-1c-0.1,0-0.1,0-0.2,0.1s-0.1,0.1-0.1,0.2
		l-0.8,2.2c-0.1,0.2-0.1,0.4-0.2,0.5c0-0.1,0-0.2-0.1-0.3s-0.1-0.2-0.1-0.3l-0.9-2.2c0-0.1-0.1-0.1-0.1-0.2c-0.1,0-0.1-0.1-0.2-0.1
		h-1.1l1.9,4.3L135.7,19.2z"/>
	<path class="st0" d="M131.3,14h0.4v2.5c0,0.2,0,0.4,0.1,0.5s0.1,0.3,0.3,0.4c0.1,0.1,0.2,0.2,0.4,0.3s0.3,0.1,0.6,0.1
		c0.2,0,0.5,0,0.7-0.1c0.2-0.1,0.4-0.2,0.6-0.3l-0.4-0.6c0,0,0-0.1-0.1-0.1s-0.1,0-0.1,0c0,0-0.1,0-0.1,0c0,0-0.1,0-0.1,0
		c0,0-0.1,0-0.1,0c0,0-0.1,0-0.2,0c-0.1,0-0.2,0-0.3-0.1s-0.1-0.2-0.1-0.3V14h1.2v-0.9H133v-1.4h-0.6c-0.1,0-0.2,0.1-0.3,0.2
		l-0.3,1.2l-0.7,0.1v0.5c0,0.1,0,0.1,0.1,0.2C131.2,13.9,131.2,14,131.3,14z"/>
	<path class="st0" d="M128.8,12.3c0.1,0.1,0.1,0.1,0.2,0.2s0.2,0.1,0.3,0.1c0.1,0,0.2,0,0.3-0.1c0.1,0,0.2-0.1,0.2-0.2
		c0.1-0.1,0.1-0.1,0.2-0.2c0-0.1,0.1-0.2,0.1-0.3c0-0.1,0-0.2-0.1-0.3c0-0.1-0.1-0.2-0.2-0.2c-0.1-0.1-0.2-0.1-0.2-0.2
		c-0.1,0-0.2-0.1-0.3-0.1c-0.1,0-0.2,0-0.3,0.1s-0.2,0.1-0.2,0.2c-0.1,0.1-0.1,0.1-0.2,0.2c0,0.1-0.1,0.2-0.1,0.3
		c0,0.1,0,0.2,0.1,0.3C128.7,12.1,128.7,12.2,128.8,12.3z"/>
	<rect x="128.7" y="13.1" class="st0" width="1.2" height="4.6"/>
	<path class="st0" d="M123,16.8c0.3,0.3,0.6,0.5,1,0.7c0.4,0.2,0.8,0.2,1.3,0.2c0.5,0,1-0.1,1.4-0.3c0.4-0.2,0.7-0.4,1-0.8l-0.5-0.6
		c-0.1-0.1-0.1-0.1-0.2-0.1c0,0-0.1,0-0.1,0c0,0-0.1,0-0.1,0.1c-0.1,0.1-0.2,0.2-0.3,0.2c-0.1,0.1-0.2,0.1-0.3,0.1s-0.2,0.1-0.3,0.1
		s-0.3,0-0.4,0c-0.3,0-0.5,0-0.7-0.1c-0.2-0.1-0.4-0.2-0.6-0.4c-0.2-0.2-0.3-0.4-0.4-0.7c-0.1-0.3-0.1-0.6-0.1-0.9
		c0-0.3,0-0.7,0.1-0.9c0.1-0.3,0.2-0.5,0.4-0.7c0.2-0.2,0.4-0.3,0.6-0.4c0.2-0.1,0.5-0.1,0.8-0.1c0.2,0,0.4,0,0.6,0.1
		c0.2,0.1,0.3,0.1,0.4,0.2c0.1,0.1,0.2,0.1,0.3,0.2c0.1,0.1,0.1,0.1,0.2,0.1c0.1,0,0.1,0,0.2,0s0.1-0.1,0.1-0.1l0.5-0.6
		c-0.1-0.1-0.3-0.2-0.4-0.3c-0.2-0.1-0.3-0.2-0.5-0.3c-0.2-0.1-0.4-0.1-0.6-0.2c-0.2,0-0.4-0.1-0.7-0.1c-0.3,0-0.6,0-0.9,0.1
		c-0.3,0.1-0.5,0.2-0.8,0.3c-0.2,0.1-0.5,0.3-0.6,0.5c-0.2,0.2-0.4,0.4-0.5,0.7c-0.1,0.2-0.2,0.5-0.3,0.8c-0.1,0.3-0.1,0.6-0.1,0.9
		c0,0.5,0.1,0.9,0.2,1.3S122.7,16.5,123,16.8z"/>
	<path class="st0" d="M120.6,13.5c-0.1-0.2-0.3-0.3-0.5-0.4c-0.2-0.1-0.4-0.1-0.7-0.1c-0.2,0-0.3,0-0.4,0c-0.1,0-0.3,0.1-0.4,0.1
		c-0.1,0.1-0.2,0.1-0.3,0.2c-0.1,0.1-0.2,0.2-0.3,0.2l-0.1-0.3c-0.1-0.1-0.2-0.2-0.3-0.2h-0.8v4.6h1.2v-3.3c0.1-0.1,0.3-0.2,0.4-0.3
		c0.2-0.1,0.3-0.1,0.5-0.1c0.2,0,0.4,0.1,0.5,0.2s0.2,0.3,0.2,0.6v2.9h1.2v-2.9c0-0.3,0-0.5-0.1-0.7S120.8,13.6,120.6,13.5z"/>
	<path class="st0" d="M115.1,16.4c-0.1,0-0.2,0-0.2,0.1c-0.1,0-0.2,0.1-0.3,0.1c-0.1,0-0.2,0.1-0.3,0.1c-0.1,0-0.3,0.1-0.4,0.1
		c-0.3,0-0.6-0.1-0.8-0.3c-0.2-0.2-0.3-0.5-0.4-1h2.8c0.1,0,0.1,0,0.1,0c0,0,0.1,0,0.1-0.1s0-0.1,0-0.1c0-0.1,0-0.1,0-0.2
		c0-0.3-0.1-0.6-0.2-0.9c-0.1-0.3-0.2-0.5-0.4-0.7c-0.2-0.2-0.4-0.3-0.6-0.4c-0.3-0.1-0.5-0.1-0.8-0.1c-0.4,0-0.7,0.1-0.9,0.2
		c-0.3,0.1-0.5,0.3-0.7,0.5c-0.2,0.2-0.3,0.4-0.4,0.7s-0.2,0.6-0.2,0.9c0,0.4,0.1,0.8,0.2,1.1c0.1,0.3,0.3,0.6,0.5,0.8
		c0.2,0.2,0.5,0.4,0.7,0.5c0.3,0.1,0.6,0.2,0.9,0.2c0.2,0,0.3,0,0.5,0s0.3-0.1,0.5-0.1s0.3-0.1,0.5-0.2c0.2-0.1,0.3-0.2,0.4-0.4
		l-0.4-0.5C115.3,16.5,115.2,16.4,115.1,16.4z M113,14.1c0.2-0.2,0.4-0.3,0.7-0.3c0.2,0,0.3,0,0.4,0.1c0.1,0.1,0.2,0.1,0.3,0.2
		c0.1,0.1,0.1,0.2,0.2,0.3c0,0.1,0.1,0.2,0.1,0.4h-1.9C112.7,14.5,112.8,14.3,113,14.1z"/>
	<path class="st0" d="M108.4,14v3.7h1.2V14h1.1v-0.9h-1.2v-0.3c0-0.2,0-0.3,0.1-0.4s0.1-0.2,0.2-0.3c0.1-0.1,0.2-0.1,0.3-0.1
		c0.1,0,0.2,0,0.3,0c0.1,0,0.2,0,0.2,0c0.1,0,0.1-0.1,0.1-0.2l0-0.6c-0.1,0-0.2,0-0.3-0.1s-0.2,0-0.3,0c-0.3,0-0.5,0-0.8,0.1
		c-0.2,0.1-0.4,0.2-0.6,0.3c-0.2,0.1-0.3,0.3-0.4,0.5c-0.1,0.2-0.1,0.5-0.1,0.7v0.3h-0.7v0.5c0,0.1,0,0.2,0.1,0.2s0.1,0.1,0.2,0.1
		L108.4,14z"/>
	<path class="st0" d="M103.2,17.5c0.1,0.1,0.3,0.2,0.4,0.2c0.2,0.1,0.4,0.1,0.6,0.1c0.2,0,0.3,0,0.4,0c0.1,0,0.3-0.1,0.4-0.1
		c0.1-0.1,0.2-0.1,0.3-0.2s0.2-0.2,0.3-0.3l0.1,0.3c0,0.1,0.1,0.2,0.2,0.2c0.1,0,0.2,0,0.3,0h0.6v-2.9c0-0.3,0-0.5-0.1-0.7
		c-0.1-0.2-0.2-0.4-0.3-0.6s-0.3-0.3-0.6-0.4c-0.2-0.1-0.5-0.1-0.7-0.1c-0.4,0-0.7,0.1-1.1,0.2c-0.3,0.1-0.6,0.3-0.9,0.6l0.2,0.4
		c0,0.1,0.1,0.1,0.1,0.2c0.1,0,0.1,0.1,0.2,0.1c0.1,0,0.2,0,0.3-0.1c0.1,0,0.2-0.1,0.2-0.1c0.1,0,0.2-0.1,0.3-0.1
		c0.1,0,0.3-0.1,0.4-0.1c0.2,0,0.4,0.1,0.5,0.2c0.1,0.1,0.2,0.4,0.2,0.6V15c-0.5,0-1,0.1-1.3,0.2c-0.4,0.1-0.6,0.2-0.8,0.3
		s-0.4,0.3-0.4,0.5s-0.1,0.3-0.1,0.5c0,0.2,0,0.4,0.1,0.5C103,17.2,103.1,17.4,103.2,17.5z M104.1,16.2c0-0.1,0.1-0.1,0.3-0.2
		c0.1-0.1,0.3-0.1,0.5-0.1c0.2,0,0.5-0.1,0.8-0.1v0.7c-0.1,0.2-0.3,0.3-0.5,0.3s-0.3,0.1-0.5,0.1c-0.2,0-0.3,0-0.4-0.1
		c-0.1-0.1-0.2-0.2-0.2-0.4C104,16.4,104.1,16.3,104.1,16.2z"/>
	<polygon class="st0" points="100.3,14 97.4,14 97.4,11.2 96.1,11.2 96.1,17.7 97.4,17.7 97.4,14.9 100.3,14.9 100.3,17.7 
		101.7,17.7 101.7,11.2 100.3,11.2 	"/>
	<path class="st0" d="M133.2,32.2l-0.1,0.3c-0.2-0.2-0.3-0.3-0.5-0.4c-0.2-0.1-0.5-0.2-0.7-0.2c-0.3,0-0.6,0.1-0.8,0.2
		c-0.2,0.1-0.5,0.3-0.6,0.5s-0.3,0.5-0.4,0.7c-0.1,0.3-0.1,0.6-0.1,0.9c0,0.4,0,0.7,0.1,1s0.2,0.5,0.4,0.7c0.2,0.2,0.3,0.3,0.6,0.4
		c0.2,0.1,0.5,0.2,0.8,0.2c0.2,0,0.3,0,0.4,0c0.1,0,0.2-0.1,0.4-0.1c0.1-0.1,0.2-0.1,0.3-0.2c0.1-0.1,0.2-0.2,0.3-0.3v0.5
		c0,0.2,0,0.3-0.1,0.5c-0.1,0.1-0.1,0.3-0.2,0.4c-0.1,0.1-0.2,0.2-0.4,0.3s-0.4,0.1-0.6,0.1c-0.2,0-0.3,0-0.5-0.1s-0.2-0.1-0.3-0.1
		c-0.1,0-0.2-0.1-0.2-0.1s-0.1-0.1-0.2-0.1s-0.1,0-0.1,0s-0.1,0.1-0.1,0.1l-0.2,0.3c0.2,0.2,0.4,0.3,0.7,0.4s0.6,0.2,1,0.2
		c0.3,0,0.6,0,0.9-0.1c0.3-0.1,0.5-0.2,0.7-0.4c0.2-0.2,0.3-0.4,0.4-0.6c0.1-0.2,0.1-0.5,0.1-0.8V32h-0.5
		C133.4,32,133.3,32.1,133.2,32.2z M133.1,35.2c-0.2,0.2-0.3,0.4-0.5,0.5s-0.4,0.2-0.6,0.2c-0.2,0-0.3,0-0.5-0.1
		c-0.1-0.1-0.3-0.2-0.4-0.3c-0.1-0.1-0.2-0.3-0.2-0.5c0-0.2-0.1-0.4-0.1-0.7c0-0.5,0.1-0.9,0.3-1.2c0.2-0.3,0.5-0.4,0.9-0.4
		c0.2,0,0.4,0,0.6,0.1c0.2,0.1,0.3,0.2,0.5,0.4V35.2z"/>
	<path class="st0" d="M128.8,31.9c-0.3,0-0.5,0.1-0.7,0.3c-0.2,0.2-0.4,0.4-0.5,0.7l-0.1-0.6c0-0.1,0-0.1-0.1-0.2
		c0,0-0.1-0.1-0.2-0.1h-0.5v4.6h0.9v-2.9c0.1-0.1,0.1-0.3,0.2-0.4c0.1-0.1,0.1-0.2,0.2-0.3c0.1-0.1,0.2-0.1,0.3-0.2
		c0.1,0,0.2-0.1,0.4-0.1c0.1,0,0.2,0,0.3,0c0.1,0,0.1,0,0.2,0c0.1,0,0.1,0,0.1-0.1l0.1-0.7c-0.1,0-0.1-0.1-0.2-0.1
		C129,31.9,128.9,31.9,128.8,31.9z"/>
	<path class="st0" d="M124.2,35.3c-0.2,0.2-0.4,0.3-0.5,0.4c-0.2,0.1-0.4,0.2-0.6,0.2c-0.3,0-0.5-0.1-0.7-0.3
		c-0.1-0.2-0.2-0.4-0.2-0.8V32h-0.9v2.9c0,0.3,0,0.5,0.1,0.7s0.2,0.4,0.3,0.5s0.3,0.3,0.5,0.4c0.2,0.1,0.4,0.1,0.7,0.1
		c0.2,0,0.3,0,0.4-0.1c0.1,0,0.3-0.1,0.4-0.1s0.2-0.1,0.3-0.2c0.1-0.1,0.2-0.2,0.3-0.3l0.1,0.5c0,0.1,0.1,0.2,0.2,0.2h0.5V32h-0.9
		V35.3z"/>
	<path class="st0" d="M119.4,32.5c-0.1-0.2-0.3-0.3-0.5-0.4c-0.2-0.1-0.5-0.2-0.7-0.2c-0.3,0-0.6,0.1-0.8,0.2
		c-0.2,0.1-0.5,0.3-0.6,0.5v-2.7h-0.9v6.6h0.6c0.1,0,0.2-0.1,0.2-0.2l0-0.4c0.1,0.1,0.2,0.2,0.2,0.3c0.1,0.1,0.2,0.1,0.3,0.2
		s0.2,0.1,0.3,0.1s0.3,0,0.4,0c0.3,0,0.6-0.1,0.8-0.2c0.2-0.1,0.4-0.3,0.6-0.5s0.3-0.5,0.4-0.8c0.1-0.3,0.1-0.6,0.1-1
		c0-0.3,0-0.7-0.1-0.9C119.7,32.9,119.6,32.7,119.4,32.5z M118.7,35.5c-0.2,0.3-0.5,0.4-0.9,0.4c-0.2,0-0.4,0-0.5-0.1
		c-0.2-0.1-0.3-0.2-0.5-0.4v-2.2c0.2-0.2,0.3-0.4,0.5-0.5s0.4-0.2,0.7-0.2c0.4,0,0.6,0.1,0.8,0.4c0.2,0.3,0.3,0.7,0.3,1.2
		C119,34.8,118.9,35.2,118.7,35.5z"/>
	<path class="st0" d="M113.9,32.4c-0.1-0.1-0.3-0.3-0.5-0.3c-0.2-0.1-0.4-0.1-0.7-0.1c-0.1,0-0.3,0-0.4,0.1c-0.1,0-0.3,0.1-0.4,0.2
		c-0.1,0.1-0.2,0.2-0.4,0.3s-0.2,0.3-0.3,0.4c-0.1-0.3-0.2-0.5-0.4-0.7c-0.2-0.2-0.4-0.2-0.7-0.2c-0.3,0-0.5,0.1-0.7,0.2
		c-0.2,0.1-0.4,0.3-0.6,0.5l-0.1-0.4c0-0.1-0.1-0.2-0.2-0.2H108v4.6h0.9v-3.4c0.1-0.2,0.3-0.3,0.4-0.4c0.2-0.1,0.3-0.1,0.5-0.1
		c0.3,0,0.5,0.1,0.6,0.3s0.2,0.4,0.2,0.8v2.9h0.9v-2.9c0-0.2,0-0.3,0.1-0.5c0-0.1,0.1-0.2,0.2-0.3c0.1-0.1,0.2-0.2,0.3-0.2
		c0.1,0,0.2-0.1,0.4-0.1c0.3,0,0.5,0.1,0.6,0.3s0.2,0.4,0.2,0.8v2.9h0.9v-2.9c0-0.3,0-0.5-0.1-0.7C114.1,32.7,114,32.5,113.9,32.4z"
		/>
	<path class="st0" d="M106,32.4c-0.1-0.2-0.3-0.3-0.5-0.4c-0.2-0.1-0.4-0.1-0.7-0.1c-0.4,0-0.7,0.1-1,0.2c-0.3,0.1-0.6,0.3-0.8,0.5
		l0.2,0.3c0,0,0.1,0.1,0.1,0.1s0.1,0,0.2,0c0.1,0,0.1,0,0.2-0.1s0.2-0.1,0.2-0.2c0.1-0.1,0.2-0.1,0.3-0.2c0.1,0,0.3-0.1,0.5-0.1
		c0.3,0,0.5,0.1,0.6,0.3c0.1,0.2,0.2,0.4,0.2,0.8V34c-0.5,0-1,0.1-1.3,0.1c-0.4,0.1-0.6,0.2-0.9,0.3c-0.2,0.1-0.4,0.3-0.5,0.4
		c-0.1,0.2-0.1,0.3-0.1,0.5c0,0.2,0,0.4,0.1,0.5c0.1,0.2,0.2,0.3,0.3,0.4c0.1,0.1,0.3,0.2,0.4,0.2c0.2,0,0.3,0.1,0.5,0.1
		c0.2,0,0.3,0,0.5,0c0.1,0,0.3-0.1,0.4-0.1s0.2-0.1,0.4-0.2c0.1-0.1,0.2-0.2,0.3-0.3l0.1,0.4c0,0.1,0.1,0.1,0.1,0.2c0,0,0.1,0,0.2,0
		h0.4v-2.9c0-0.3,0-0.5-0.1-0.7C106.3,32.7,106.2,32.5,106,32.4z M105.6,35.4c-0.1,0.1-0.2,0.2-0.3,0.2c-0.1,0.1-0.2,0.1-0.3,0.2
		c-0.1,0-0.2,0.1-0.3,0.1c-0.1,0-0.2,0-0.4,0c-0.1,0-0.2,0-0.3,0c-0.1,0-0.2-0.1-0.2-0.1s-0.1-0.1-0.2-0.2c0-0.1-0.1-0.2-0.1-0.3
		c0-0.1,0-0.2,0.1-0.3c0.1-0.1,0.2-0.2,0.3-0.3c0.2-0.1,0.4-0.1,0.6-0.2c0.2,0,0.6-0.1,0.9-0.1V35.4z"/>
	<polygon class="st0" points="100.5,33 97.1,33 97.1,30.1 96.2,30.1 96.2,36.6 97.1,36.6 97.1,33.7 100.5,33.7 100.5,36.6 
		101.5,36.6 101.5,30.1 100.5,30.1 	"/>
	<path class="st0" d="M100.2,24.8c0,0.2,0,0.5-0.1,0.6c-0.1,0.2-0.2,0.4-0.3,0.5c-0.1,0.1-0.3,0.2-0.4,0.3c-0.2,0.1-0.4,0.1-0.6,0.1
		c-0.2,0-0.4,0-0.6-0.1c-0.2-0.1-0.3-0.2-0.4-0.3c-0.1-0.1-0.2-0.3-0.3-0.5c-0.1-0.2-0.1-0.4-0.1-0.6v-3.9h-1.4v3.9
		c0,0.4,0.1,0.8,0.2,1.1c0.1,0.3,0.3,0.6,0.5,0.9c0.2,0.2,0.5,0.4,0.9,0.6c0.3,0.1,0.7,0.2,1.1,0.2s0.8-0.1,1.1-0.2
		c0.3-0.1,0.6-0.3,0.9-0.6c0.2-0.2,0.4-0.5,0.5-0.9c0.1-0.3,0.2-0.7,0.2-1.1v-3.9h-1.4V24.8z"/>
	<path class="st0" d="M106.6,23.2c-0.1-0.2-0.3-0.3-0.5-0.4c-0.2-0.1-0.4-0.1-0.7-0.1c-0.2,0-0.3,0-0.4,0s-0.3,0.1-0.4,0.1
		c-0.1,0.1-0.2,0.1-0.3,0.2c-0.1,0.1-0.2,0.2-0.3,0.2L104,23c-0.1-0.1-0.2-0.2-0.3-0.2h-0.8v4.6h1.2v-3.3c0.1-0.1,0.3-0.2,0.4-0.3
		c0.2-0.1,0.3-0.1,0.5-0.1c0.2,0,0.4,0.1,0.5,0.2s0.2,0.3,0.2,0.6v2.9h1.2v-2.9c0-0.3,0-0.5-0.1-0.7
		C106.9,23.5,106.8,23.4,106.6,23.2z"/>
	<rect x="108.5" y="22.8" class="st0" width="1.2" height="4.6"/>
	<path class="st0" d="M109.8,21.5c0-0.1,0-0.2-0.1-0.3c0-0.1-0.1-0.2-0.2-0.2c-0.1-0.1-0.2-0.1-0.2-0.2c-0.1,0-0.2-0.1-0.3-0.1
		c-0.1,0-0.2,0-0.3,0.1c-0.1,0-0.2,0.1-0.2,0.2c-0.1,0.1-0.1,0.1-0.2,0.2c0,0.1-0.1,0.2-0.1,0.3s0,0.2,0.1,0.3s0.1,0.2,0.2,0.2
		c0.1,0.1,0.1,0.1,0.2,0.2c0.1,0,0.2,0.1,0.3,0.1c0.1,0,0.2,0,0.3-0.1c0.1,0,0.2-0.1,0.2-0.2c0.1-0.1,0.1-0.1,0.2-0.2
		S109.8,21.6,109.8,21.5z"/>
	<path class="st0" d="M114.2,22.8c-0.1,0-0.1,0.1-0.1,0.2l-0.8,2.3c-0.1,0.2-0.1,0.3-0.1,0.5s-0.1,0.3-0.1,0.4
		c0-0.1-0.1-0.3-0.1-0.4s-0.1-0.3-0.1-0.5L112,23c0-0.1-0.1-0.1-0.1-0.2s-0.1-0.1-0.2-0.1h-1l1.8,4.6h1.1l1.8-4.6h-1
		C114.3,22.8,114.3,22.8,114.2,22.8z"/>
	<path class="st0" d="M119.7,23.3c-0.2-0.2-0.4-0.3-0.6-0.4c-0.3-0.1-0.5-0.1-0.8-0.1c-0.4,0-0.7,0.1-0.9,0.2
		c-0.3,0.1-0.5,0.3-0.7,0.5c-0.2,0.2-0.3,0.5-0.4,0.7c-0.1,0.3-0.2,0.6-0.2,0.9c0,0.4,0.1,0.8,0.2,1.1c0.1,0.3,0.3,0.6,0.5,0.8
		c0.2,0.2,0.5,0.4,0.7,0.5c0.3,0.1,0.6,0.2,0.9,0.2c0.2,0,0.3,0,0.5,0s0.3-0.1,0.5-0.1s0.3-0.1,0.5-0.2c0.2-0.1,0.3-0.2,0.4-0.4
		l-0.4-0.5c-0.1-0.1-0.1-0.1-0.2-0.1c-0.1,0-0.2,0-0.2,0.1s-0.2,0.1-0.3,0.1c-0.1,0-0.2,0.1-0.3,0.1s-0.3,0.1-0.4,0.1
		c-0.3,0-0.6-0.1-0.8-0.3c-0.2-0.2-0.3-0.5-0.4-1h2.8c0.1,0,0.1,0,0.1,0c0,0,0.1,0,0.1-0.1c0,0,0-0.1,0-0.1c0-0.1,0-0.1,0-0.2
		c0-0.3-0.1-0.6-0.2-0.9C120,23.7,119.8,23.4,119.7,23.3z M117.2,24.5c0.1-0.3,0.2-0.6,0.3-0.7s0.4-0.3,0.7-0.3c0.2,0,0.3,0,0.4,0.1
		c0.1,0.1,0.2,0.1,0.3,0.2c0.1,0.1,0.1,0.2,0.2,0.3c0,0.1,0.1,0.2,0.1,0.4H117.2z"/>
	<path class="st0" d="M122.6,24.6c0-0.1,0.1-0.2,0.2-0.3c0.1-0.1,0.1-0.2,0.2-0.2c0.1-0.1,0.1-0.1,0.2-0.1c0.1,0,0.2,0,0.3,0
		c0.1,0,0.2,0,0.3,0c0.1,0,0.2,0,0.2,0c0.1,0,0.1,0,0.1,0c0,0,0.1-0.1,0.1-0.1l0.1-0.9c-0.1-0.1-0.3-0.1-0.5-0.1
		c-0.3,0-0.5,0.1-0.7,0.2s-0.4,0.4-0.5,0.6l-0.1-0.5c0-0.1-0.1-0.2-0.1-0.2c0,0-0.1-0.1-0.3-0.1h-0.7v4.6h1.2V24.6z"/>
	<path class="st0" d="M127.9,27c0.2-0.1,0.3-0.3,0.4-0.5s0.1-0.4,0.1-0.6c0-0.2,0-0.4-0.1-0.5s-0.1-0.2-0.2-0.3
		c-0.1-0.1-0.2-0.2-0.4-0.2s-0.3-0.1-0.4-0.2s-0.3-0.1-0.4-0.1c-0.1,0-0.2-0.1-0.4-0.1c-0.1,0-0.2-0.1-0.2-0.2s-0.1-0.1-0.1-0.2
		c0-0.1,0.1-0.2,0.2-0.3c0.1-0.1,0.3-0.1,0.5-0.1c0.1,0,0.2,0,0.3,0c0.1,0,0.2,0.1,0.3,0.1c0.1,0,0.1,0.1,0.2,0.1s0.1,0,0.2,0
		s0.1,0,0.1,0c0,0,0.1-0.1,0.1-0.1l0.3-0.4c-0.2-0.2-0.4-0.3-0.7-0.4c-0.3-0.1-0.6-0.2-0.9-0.2c-0.3,0-0.6,0-0.8,0.1
		c-0.2,0.1-0.4,0.2-0.6,0.3c-0.1,0.1-0.3,0.3-0.3,0.5c-0.1,0.2-0.1,0.4-0.1,0.5c0,0.2,0,0.4,0.1,0.5c0.1,0.1,0.1,0.3,0.3,0.4
		s0.2,0.2,0.4,0.2s0.3,0.1,0.4,0.2c0.1,0,0.3,0.1,0.4,0.1s0.3,0.1,0.4,0.1s0.2,0.1,0.3,0.2s0.1,0.1,0.1,0.2c0,0.1,0,0.1,0,0.2
		c0,0.1-0.1,0.1-0.1,0.2c-0.1,0-0.1,0.1-0.2,0.1c-0.1,0-0.2,0-0.3,0c-0.2,0-0.3,0-0.4-0.1c-0.1,0-0.2-0.1-0.3-0.1s-0.1-0.1-0.2-0.1
		s-0.1-0.1-0.2-0.1c-0.1,0-0.1,0-0.2,0c0,0-0.1,0.1-0.1,0.1l-0.3,0.5c0.1,0.1,0.2,0.2,0.3,0.2s0.3,0.1,0.4,0.2
		c0.1,0.1,0.3,0.1,0.4,0.1c0.2,0,0.3,0,0.5,0c0.3,0,0.6,0,0.8-0.1C127.5,27.3,127.7,27.2,127.9,27z"/>
	<rect x="129.6" y="22.8" class="st0" width="1.2" height="4.6"/>
	<path class="st0" d="M129.9,22.1c0.1,0,0.2,0.1,0.3,0.1c0.1,0,0.2,0,0.3-0.1c0.1,0,0.2-0.1,0.2-0.2c0.1-0.1,0.1-0.1,0.2-0.2
		s0.1-0.2,0.1-0.3s0-0.2-0.1-0.3c0-0.1-0.1-0.2-0.2-0.2c-0.1-0.1-0.2-0.1-0.2-0.2c-0.1,0-0.2-0.1-0.3-0.1c-0.1,0-0.2,0-0.3,0.1
		c-0.1,0-0.2,0.1-0.2,0.2c-0.1,0.1-0.1,0.1-0.2,0.2c0,0.1-0.1,0.2-0.1,0.3s0,0.2,0.1,0.3s0.1,0.2,0.2,0.2
		C129.7,22.1,129.8,22.1,129.9,22.1z"/>
	<path class="st0" d="M134.7,26.4C134.6,26.4,134.6,26.4,134.7,26.4c-0.1,0-0.1,0-0.2,0c0,0-0.1,0-0.1,0s-0.1,0-0.1,0s-0.1,0-0.2,0
		c-0.1,0-0.2,0-0.3-0.1s-0.1-0.2-0.1-0.3v-2.4h1.2v-0.9h-1.2v-1.4h-0.6c-0.1,0-0.2,0.1-0.3,0.2l-0.3,1.2l-0.7,0.1v0.5
		c0,0.1,0,0.1,0.1,0.2c0,0,0.1,0.1,0.2,0.1h0.4v2.5c0,0.2,0,0.4,0.1,0.5c0.1,0.2,0.1,0.3,0.3,0.4c0.1,0.1,0.2,0.2,0.4,0.3
		c0.2,0.1,0.3,0.1,0.6,0.1c0.2,0,0.5,0,0.7-0.1c0.2-0.1,0.4-0.2,0.6-0.3L134.7,26.4C134.7,26.4,134.7,26.4,134.7,26.4z"/>
	<path class="st0" d="M139,21c-0.1,0-0.2-0.1-0.3-0.1c-0.1,0-0.2,0-0.3,0.1c-0.1,0-0.2,0.1-0.2,0.1c-0.1,0.1-0.1,0.1-0.1,0.2
		c0,0.1-0.1,0.2-0.1,0.3c0,0.1,0,0.2,0.1,0.3c0,0.1,0.1,0.1,0.1,0.2s0.1,0.1,0.2,0.1s0.2,0,0.3,0c0.1,0,0.2,0,0.3,0s0.2-0.1,0.2-0.1
		s0.1-0.1,0.1-0.2c0-0.1,0.1-0.2,0.1-0.3c0-0.1,0-0.2-0.1-0.3c0-0.1-0.1-0.2-0.1-0.2C139.1,21.1,139.1,21,139,21z"/>
	<path class="st0" d="M139.2,23.2c-0.2-0.2-0.3-0.3-0.6-0.4c-0.2-0.1-0.5-0.1-0.7-0.1c-0.4,0-0.7,0.1-1.1,0.2s-0.6,0.3-0.9,0.6
		l0.2,0.4c0,0.1,0.1,0.1,0.1,0.2s0.1,0.1,0.2,0.1c0.1,0,0.2,0,0.3-0.1c0.1,0,0.2-0.1,0.2-0.1c0.1,0,0.2-0.1,0.3-0.1
		c0.1,0,0.3-0.1,0.4-0.1c0.2,0,0.4,0.1,0.5,0.2c0.1,0.1,0.2,0.4,0.2,0.6v0.2c-0.5,0-1,0.1-1.3,0.2c-0.4,0.1-0.6,0.2-0.8,0.3
		s-0.4,0.3-0.4,0.5s-0.1,0.3-0.1,0.5c0,0.2,0,0.4,0.1,0.5s0.2,0.3,0.3,0.4c0.1,0.1,0.3,0.2,0.4,0.2c0.2,0.1,0.4,0.1,0.6,0.1
		c0.2,0,0.3,0,0.4,0c0.1,0,0.3-0.1,0.4-0.1c0.1-0.1,0.2-0.1,0.3-0.2c0.1-0.1,0.2-0.2,0.3-0.3l0.1,0.3c0,0.1,0.1,0.2,0.2,0.2
		c0.1,0,0.2,0,0.3,0h0.6v-2.9c0-0.3,0-0.5-0.1-0.7S139.3,23.4,139.2,23.2z M138.5,26.2c-0.1,0.2-0.3,0.3-0.5,0.3
		c-0.2,0.1-0.3,0.1-0.5,0.1c-0.2,0-0.3,0-0.4-0.1s-0.2-0.2-0.2-0.4c0-0.1,0-0.2,0.1-0.2c0-0.1,0.1-0.1,0.3-0.2s0.3-0.1,0.5-0.1
		c0.2,0,0.5-0.1,0.8-0.1V26.2z"/>
	<path class="st0" d="M137.1,21c-0.1,0-0.2-0.1-0.3-0.1c-0.1,0-0.2,0-0.2,0.1c-0.1,0-0.1,0.1-0.2,0.1c-0.1,0.1-0.1,0.1-0.1,0.2
		s-0.1,0.2-0.1,0.3c0,0.1,0,0.2,0.1,0.3c0,0.1,0.1,0.1,0.1,0.2s0.1,0.1,0.2,0.1s0.2,0,0.2,0c0.1,0,0.2,0,0.3,0s0.2-0.1,0.2-0.1
		s0.1-0.1,0.1-0.2c0-0.1,0.1-0.2,0.1-0.3c0-0.1,0-0.2-0.1-0.3c0-0.1-0.1-0.2-0.1-0.2C137.3,21.1,137.2,21,137.1,21z"/>
	<path class="st0" d="M143.4,26.5C143.4,26.4,143.4,26.4,143.4,26.5c-0.1-0.1-0.1-0.1-0.2-0.1c0,0-0.1,0-0.1,0c0,0-0.1,0-0.1,0
		s-0.1,0-0.1,0c0,0-0.1,0-0.2,0c-0.1,0-0.2,0-0.3-0.1c-0.1-0.1-0.1-0.2-0.1-0.3v-2.4h1.2v-0.9h-1.2v-1.4h-0.6
		c-0.2,0-0.2,0.1-0.3,0.2l-0.3,1.2l-0.7,0.1v0.5c0,0.1,0,0.1,0.1,0.2c0,0,0.1,0.1,0.2,0.1h0.4v2.5c0,0.2,0,0.4,0.1,0.5
		c0.1,0.2,0.1,0.3,0.3,0.4c0.1,0.1,0.2,0.2,0.4,0.3c0.2,0.1,0.3,0.1,0.6,0.1c0.2,0,0.5,0,0.7-0.1c0.2-0.1,0.4-0.2,0.6-0.3
		L143.4,26.5z"/>
</g>
</svg>
