<?xml version="1.0" encoding="utf-8"?>
<!-- Generator: Adobe Illustrator 22.1.0, SVG Export Plug-In . SVG Version: 6.00 Build 0)  -->
<svg version="1.1" id="GIGA_Hamburg" xmlns="http://www.w3.org/2000/svg" xmlns:xlink="http://www.w3.org/1999/xlink" x="0px"
	 y="0px" viewBox="0 0 737.2 259.9" style="enable-background:new 0 0 737.2 259.9;" xml:space="preserve">
<style type="text/css">
	.st0{fill:#9D9D9D;}
	.st1{fill:#0063A8;}
</style>
<g>
	<rect id="I_von_GIGA_7_" x="238.7" y="4" class="st0" width="27.4" height="169.9"/>
	<path id="erstes_G_von_GIGA_7_" class="st0" d="M156,84.4H83.7V107h45.2c-0.5,28.8-17.1,47.1-47.6,46.6
		c-36.4,0-51.6-32.1-51.6-64.7c0-32.6,15.2-64.7,51.6-64.7c21.4,0,40.9,11.4,43.8,33.8h29c-4.5-38.3-35.7-58-72.8-58
		C30.5,0,0,40.4,0,89s30.5,89,81.3,89c20.7,0,35.2-5.9,51.1-24l4.5,20h19V84.4z"/>
	<path id="zweites_G_von_GIGA_7_" class="st0" d="M499.5,84.4h-72.3V107h45.2c-0.5,28.8-17.1,47.1-47.6,46.6
		c-36.4,0-51.6-32.1-51.6-64.7c0-32.6,15.2-64.7,51.6-64.7c21.4,0,40.9,11.4,43.8,33.8h29c-4.5-38.3-35.7-58-72.8-58
		c-50.9,0-81.4,40.4-81.4,89s30.5,89,81.4,89c20.7,0,35.2-5.9,51.1-24l4.5,20h19V84.4z"/>
	<path id="A_von_GIGA_7_" class="st0" d="M575,173.9h30.7l15.9-45h67.8l15.9,45h31.9L671.8,4h-31.6L575,173.9z M654.4,33.3h0.5h0.2
		l25.4,73h-51.9L654.4,33.3z"/>
	<rect id="Quadrat_blau_7_" x="238.7" y="188.1" class="st1" width="27.4" height="30.4"/>
	<path class="st0" d="M276.4,198.9h1.9v19.6l-1.9,0V198.9z"/>
	<path class="st0" d="M283.1,204.3l1.7,0v2.4h0.1c0.6-1.7,2.5-2.9,4.5-2.9c4,0,5.2,2.1,5.2,5.5v9.1h-1.7v-8.9c0-2.4-0.8-4.3-3.6-4.3
		c-2.8,0-4.4,2.1-4.5,4.9v8.3l-1.7,0V204.3z"/>
	<path class="st0" d="M307.4,208.4c-0.1-2.1-1.7-3.1-3.7-3.1c-1.5,0-3.4,0.6-3.4,2.4c0,1.5,1.8,2.1,2.9,2.4l2.3,0.5
		c2,0.3,4,1.5,4,3.9c0,3.1-3.1,4.3-5.7,4.3c-3.3,0-5.6-1.5-5.8-5h1.7c0.1,2.4,1.9,3.5,4.2,3.5c1.6,0,3.9-0.7,3.9-2.7
		c0-1.6-1.5-2.2-3.1-2.6l-2.2-0.5c-2.3-0.6-4-1.4-4-3.8c0-2.9,2.8-4,5.3-4c2.8,0,5.1,1.5,5.2,4.6H307.4z"/>
	<path class="st0" d="M315.9,204.3h2.9v1.5h-2.9v9.6c0,1.1,0.2,1.8,1.4,1.9c0.5,0,1,0,1.5-0.1v1.5c-0.5,0-1,0.1-1.5,0.1
		c-2.3,0-3.1-0.7-3.1-3.2v-9.7h-2.5v-1.5h2.5V200h1.7V204.3z"/>
	<path class="st0" d="M322.4,198.9h1.7v2.7h-1.7V198.9z M322.4,204.3l1.7,0v14.2l-1.7,0V204.3z"/>
	<path class="st0" d="M331.3,204.3h2.9v1.5h-2.9v9.6c0,1.1,0.2,1.8,1.4,1.9c0.5,0,1,0,1.5-0.1v1.5c-0.5,0-1,0.1-1.5,0.1
		c-2.3,0-3.1-0.8-3.1-3.1v-9.7l-2.5,0v-1.5h2.5V200h1.7V204.3z"/>
	<path class="st0" d="M349.2,218.5h-1.6v-2.6h-0.1c-0.9,1.9-2.8,3-4.9,3c-3.6,0-5-2.1-5-5.4v-9.2h1.7v9.2c0.1,2.7,1,3.9,3.8,3.9
		c3,0,4.3-2.8,4.3-5.7v-7.5h1.7V218.5z"/>
	<path class="st0" d="M356.3,204.3h2.9v1.5h-2.9v9.6c0,1.1,0.2,1.8,1.4,1.9c0.5,0,1,0,1.5-0.1v1.5c-0.5,0-1,0.1-1.5,0.1
		c-2.3,0-3.1-0.8-3.1-3.2v-9.7H352v-1.5h2.5v-4.3h1.7V204.3z"/>
	<path class="st0" d="M363.7,211.8c0,2.6,1.3,5.6,4.7,5.6c2.5,0,3.9-1.5,4.5-3.6h1.7c-0.7,3.2-2.6,5.1-6.2,5.1
		c-4.5,0-6.4-3.5-6.4-7.5c0-3.7,1.9-7.5,6.4-7.5c4.6,0,6.4,4,6.2,8H363.7z M372.9,210.4c-0.1-2.6-1.7-5.1-4.5-5.1
		c-2.8,0-4.4,2.5-4.7,5.1H372.9z"/>
	<path class="st0" d="M407.6,211.4c0,4.1-2.4,7.5-6.7,7.5c-4.3,0-6.7-3.4-6.7-7.5c0-4.1,2.4-7.5,6.7-7.5
		C405.2,203.9,407.6,207.3,407.6,211.4z M395.9,211.4c0,3.1,1.6,6,5,6c3.3,0,5-3,5-6c0-3-1.7-6.1-5-6.1
		C397.5,205.3,395.9,208.3,395.9,211.4z"/>
	<path class="st0" d="M392.2,205.8h-2.8v12.7h-1.7v-12.7h-2.4v-1.5h2.4V203c0-2.4,0.7-4.2,3.4-4.2c0.5,0,0.9,0,1.5,0.1v1.5
		c-0.5-0.1-0.9-0.1-1.3-0.1c-1.9,0-1.9,1.2-1.9,2.8v1.2h2.8V205.8z"/>
	<path class="st0" d="M446.7,218.5h-1.3l-0.2-3.6h-0.1c-1.3,2.8-4,4-6.8,4c-6.2,0-9.3-4.8-9.3-10.2c0-5.4,3.1-10.2,9.3-10.2
		c4.1,0,7.5,2.2,8.2,6.5h-1.9c-0.2-2.3-2.6-4.9-6.3-4.9c-5.2,0-7.4,4.3-7.4,8.6c0,4.3,2.2,8.6,7.4,8.6c4.3,0,6.9-3.1,6.8-7.2h-6.7
		v-1.6h8.3V218.5z"/>
	<path class="st0" d="M451,198.9h1.7v19.6l-1.7,0V198.9z"/>
	<path class="st0" d="M469.9,211.4c0,4.1-2.4,7.5-6.7,7.5c-4.3,0-6.7-3.4-6.7-7.5c0-4.1,2.4-7.5,6.7-7.5
		C467.5,203.9,469.9,207.3,469.9,211.4z M458.2,211.4c0,3.1,1.6,6,5,6c3.3,0,5-3,5-6c0-3-1.7-6.1-5-6.1
		C459.8,205.3,458.2,208.3,458.2,211.4z"/>
	<path class="st0" d="M473.5,198.9h1.7v8.1h0.1c0.7-2,2.8-3.1,4.9-3.1c4.3,0,6.4,3.5,6.4,7.5c0,4-2.1,7.5-6.4,7.5
		c-2.3,0-4.3-1.2-5.1-3.1h-0.1v2.7h-1.6V198.9z M480.2,205.4c-3.7,0-5,3.1-5,6.1c0,2.9,1.3,6,5,6c3.3,0,4.6-3.1,4.6-6
		C484.8,208.5,483.5,205.4,480.2,205.4z"/>
	<path class="st0" d="M490.2,208.6c0.2-3.3,2.5-4.8,5.7-4.8c2.5,0,5.2,0.8,5.2,4.6v7.5c0,0.7,0.3,1,1,1c0.2,0,0.4-0.1,0.6-0.1v1.5
		c-0.4,0.1-0.7,0.1-1.1,0.1c-1.8,0-2-1-2-2.5h-0.1c-1.2,1.8-2.4,2.9-5.2,2.9c-2.6,0-4.8-1.2-4.8-4.2c0-4,3.9-4.1,7.6-4.6
		c1.4-0.2,2.2-0.4,2.2-1.9c0-2.3-1.7-2.9-3.7-2.9c-2.1,0-3.7,1-3.8,3.3H490.2z M499.4,210.7L499.4,210.7c-0.3,0.4-1,0.5-1.5,0.6
		c-2.9,0.5-6.6,0.5-6.6,3.3c0,1.8,1.5,2.8,3.2,2.8c2.6,0,5-1.7,4.9-4.5V210.7z"/>
	<path class="st0" d="M505.7,198.9l1.7,0v19.6l-1.7,0V198.9z"/>
	<path class="st0" d="M520.3,208.6c0.2-3.3,2.5-4.8,5.7-4.8c2.5,0,5.2,0.9,5.2,4.6v7.5c0,0.7,0.3,1,1,1c0.2,0,0.4-0.1,0.6-0.1v1.5
		c-0.4,0.1-0.7,0.1-1.1,0.1c-1.8,0-2-1-2-2.5h-0.1c-1.2,1.8-2.4,2.9-5.2,2.9c-2.6,0-4.8-1.3-4.8-4.2c0-4,3.9-4.1,7.6-4.6
		c1.4-0.2,2.2-0.4,2.2-1.9c0-2.3-1.7-2.9-3.7-2.9c-2.1,0-3.7,1-3.8,3.3H520.3z M529.5,210.8L529.5,210.8c-0.3,0.4-1,0.5-1.5,0.6
		c-2.9,0.5-6.6,0.5-6.6,3.3c0,1.7,1.5,2.8,3.2,2.8c2.6,0,5-1.6,4.9-4.5V210.8z"/>
	<path class="st0" d="M535.7,204.3l1.7,0v2.4h0.1c0.6-1.7,2.5-2.9,4.5-2.9c4,0,5.2,2.1,5.2,5.5v9.1h-1.7v-8.9c0-2.4-0.8-4.3-3.6-4.3
		c-2.8,0-4.4,2.1-4.5,4.9v8.3l-1.7,0V204.3z"/>
	<path class="st0" d="M564.1,218.5h-1.6v-2.7l-0.1,0c-0.7,1.8-3,3.1-5.1,3.1c-4.3,0-6.4-3.5-6.4-7.5c0-4,2.1-7.5,6.4-7.5
		c2.1,0,4.2,1.1,4.9,3.1h0.1v-8.1h1.7V218.5z M557.4,217.4c3.7,0,5-3.1,5-6s-1.3-6.1-5-6.1c-3.3,0-4.6,3.1-4.6,6.1
		C552.7,214.4,554.1,217.4,557.4,217.4z"/>
	<path class="st0" d="M583.2,198.9h2.1l7.7,19.6h-2l-2.4-6.1h-8.9l-2.4,6.1h-2L583.2,198.9z M580.2,210.8h7.7l-3.8-10.1L580.2,210.8
		z"/>
	<path class="st0" d="M595.5,204.3h1.6v3.3h0.1c0.9-2.3,2.8-3.6,5.4-3.5v1.7c-3.1-0.2-5.3,2.1-5.3,5.1v7.5l-1.7,0V204.3z"/>
	<path class="st0" d="M605.7,211.9c0,2.5,1.3,5.6,4.7,5.6c2.5,0,3.9-1.5,4.5-3.6h1.7c-0.7,3.2-2.6,5.1-6.2,5.1
		c-4.5,0-6.4-3.5-6.4-7.5c0-3.7,1.9-7.5,6.4-7.5c4.6,0,6.4,4,6.2,8H605.7z M614.9,210.4c-0.1-2.6-1.7-5.1-4.5-5.1
		c-2.8,0-4.4,2.5-4.7,5.1H614.9z"/>
	<path class="st0" d="M619.8,208.6c0.2-3.3,2.5-4.8,5.7-4.8c2.5,0,5.2,0.8,5.2,4.6v7.5c0,0.7,0.3,1,1,1c0.2,0,0.4-0.1,0.6-0.1v1.5
		c-0.4,0.1-0.7,0.1-1.1,0.1c-1.8,0-2-1-2-2.5h-0.1c-1.2,1.8-2.4,2.9-5.2,2.9c-2.6,0-4.8-1.3-4.8-4.2c0-4,3.9-4.1,7.6-4.6
		c1.4-0.2,2.2-0.4,2.2-1.9c0-2.3-1.7-2.9-3.7-2.9c-2.1,0-3.7,1-3.8,3.3H619.8z M629.1,210.7L629.1,210.7c-0.3,0.4-1,0.5-1.5,0.6
		c-2.9,0.5-6.6,0.5-6.6,3.3c0,1.7,1.5,2.8,3.2,2.8c2.6,0,5-1.7,4.9-4.5V210.7z"/>
	<path class="st0" d="M645.2,212c-0.1,4.2,2.8,5.3,6.4,5.3c2.1,0,5.2-1.1,5.2-4c0-2.2-2.2-3.1-4-3.5l-4.4-1.1
		c-2.3-0.6-4.4-1.7-4.4-4.7c0-1.9,1.2-5.5,6.8-5.5c3.9,0,7.3,2.1,7.3,6.1h-1.9c-0.1-3-2.6-4.5-5.4-4.5c-2.6,0-4.9,1-4.9,3.9
		c0,1.8,1.4,2.6,3,3l4.8,1.2c2.8,0.7,5.1,2,5.1,5.2c0,1.3-0.5,5.6-7.5,5.6c-4.6,0-8.1-2.1-7.8-6.9H645.2z"/>
	<path class="st0" d="M665.1,204.3h2.9v1.5h-2.9v9.6c0,1.1,0.2,1.8,1.4,1.9c0.5,0,1-0.1,1.5-0.1v1.5c-0.5,0-1,0.1-1.5,0.1
		c-2.3,0-3.1-0.8-3.1-3.2v-9.7h-2.5v-1.5h2.5V200h1.7V204.3z"/>
	<path class="st0" d="M683.1,218.5h-1.6v-2.6h-0.1c-0.9,1.9-2.8,3-4.9,3c-3.6,0-5-2.1-5-5.4v-9.2h1.7v9.2c0.1,2.6,1,3.9,3.8,3.9
		c3,0,4.3-2.8,4.3-5.7v-7.5h1.7V218.5z"/>
	<path class="st0" d="M699.9,218.5h-1.6v-2.7l-0.1,0c-0.7,1.8-3,3.1-5.1,3.1c-4.3,0-6.4-3.5-6.4-7.5c0-4,2.1-7.5,6.4-7.5
		c2.1,0,4.2,1.1,4.9,3.1h0.1v-8.1h1.7V218.5z M693.2,217.4c3.7,0,5-3.1,5-6s-1.3-6.1-5-6.1c-3.3,0-4.6,3.1-4.6,6.1
		C688.5,214.4,689.9,217.4,693.2,217.4z"/>
	<path class="st0" d="M704.2,198.9h1.7v2.7h-1.7V198.9z M704.2,204.3h1.7v14.2h-1.7V204.3z"/>
	<path class="st0" d="M711.4,211.8c0,2.6,1.3,5.6,4.7,5.6c2.5,0,3.9-1.5,4.5-3.6h1.7c-0.7,3.2-2.6,5.1-6.2,5.1
		c-4.5,0-6.4-3.5-6.4-7.5c0-3.7,1.9-7.5,6.4-7.5c4.6,0,6.4,4,6.2,8H711.4z M720.5,210.4c-0.1-2.7-1.7-5.1-4.5-5.1
		c-2.8,0-4.4,2.5-4.7,5.1H720.5z"/>
	<path class="st0" d="M734.2,208.4c-0.1-2.1-1.7-3.1-3.7-3.1c-1.5,0-3.4,0.6-3.4,2.4c0,1.5,1.8,2.1,2.9,2.4l2.3,0.5
		c2,0.3,4,1.5,4,3.9c0,3.1-3.1,4.3-5.7,4.3c-3.3,0-5.6-1.6-5.8-5h1.7c0.1,2.3,1.9,3.5,4.2,3.5c1.6,0,3.9-0.7,3.9-2.7
		c0-1.6-1.5-2.2-3.1-2.6l-2.2-0.5c-2.3-0.6-4-1.4-4-3.8c0-2.9,2.8-4,5.3-4c2.8,0,5.1,1.5,5.2,4.6H734.2z"/>
	<path class="st0" d="M148.3,218.5h-1.3l-0.2-3.6h-0.1c-1.3,2.8-4,4-6.8,4c-6.2,0-9.3-4.9-9.3-10.2c0-5.4,3.1-10.2,9.3-10.2
		c4.1,0,7.5,2.2,8.2,6.5h-1.9c-0.2-2.3-2.6-4.9-6.3-4.9c-5.2,0-7.4,4.3-7.4,8.6c0,4.3,2.2,8.7,7.4,8.7c4.3,0,6.9-3.1,6.8-7.2h-6.7
		v-1.6h8.3V218.5z"/>
	<path class="st0" d="M153.6,211.8c0,2.5,1.3,5.6,4.7,5.6c2.5,0,3.9-1.5,4.5-3.7h1.7c-0.7,3.2-2.6,5.1-6.2,5.1
		c-4.5,0-6.4-3.5-6.4-7.5c0-3.7,1.9-7.5,6.4-7.5c4.6,0,6.4,4,6.2,8H153.6z M162.8,210.4c-0.1-2.6-1.7-5.1-4.5-5.1
		c-2.8,0-4.4,2.5-4.7,5.1H162.8z"/>
	<path class="st0" d="M167.9,204.3l1.6,0v3.3h0.1c0.9-2.3,2.8-3.6,5.4-3.5v1.7c-3.1-0.2-5.3,2.1-5.3,5.1v7.6l-1.7,0V204.3z"/>
	<path class="st0" d="M411.2,204.3l1.6,0v3.3h0.1c0.9-2.3,2.8-3.6,5.4-3.5v1.7c-3.1-0.2-5.3,2.1-5.3,5.1v7.6l-1.7,0V204.3z"/>
	<path class="st0" d="M177.6,204.3h1.6v2.4h0.1c0.9-1.7,2.4-2.8,4.6-2.8c1.9,0,3.5,0.9,4.1,2.8c0.9-1.9,2.6-2.8,4.5-2.8
		c3.1,0,4.7,1.6,4.7,5v9.6h-1.7v-9.5c0-2.3-0.9-3.6-3.4-3.6c-3,0-3.8,2.5-3.8,5.1v8h-1.7v-9.6c0-1.9-0.8-3.5-3-3.5
		c-3,0-4.2,2.3-4.2,5.3v7.9l-1.7,0V204.3z"/>
	<path class="st0" d="M201.4,208.6c0.2-3.3,2.5-4.8,5.7-4.8c2.5,0,5.2,0.8,5.2,4.6v7.5c0,0.7,0.3,1,1,1c0.2,0,0.4-0.1,0.5-0.1v1.5
		c-0.4,0.1-0.7,0.1-1.1,0.1c-1.8,0-2-1-2-2.5h-0.1c-1.2,1.8-2.4,2.9-5.2,2.9c-2.6,0-4.8-1.3-4.8-4.2c0-4,3.9-4.1,7.6-4.6
		c1.4-0.2,2.2-0.4,2.2-1.9c0-2.3-1.7-2.9-3.7-2.9c-2.1,0-3.7,1-3.8,3.3H201.4z M210.6,210.7L210.6,210.7c-0.3,0.4-1,0.5-1.5,0.6
		c-2.9,0.5-6.6,0.5-6.6,3.3c0,1.7,1.5,2.8,3.2,2.8c2.6,0,5-1.7,5-4.5V210.7z"/>
	<path class="st0" d="M216.8,204.3h1.7v2.4h0.1c0.6-1.7,2.5-2.9,4.5-2.9c4,0,5.2,2.1,5.2,5.5v9.1h-1.7v-8.8c0-2.4-0.8-4.3-3.6-4.3
		c-2.8,0-4.4,2.1-4.5,4.9v8.3h-1.7V204.3z"/>
	<path class="st0" d="M105.9,234.6h1.9v18h11v1.6h-12.9V234.6z"/>
	<path class="st0" d="M122.4,247.6c0,2.5,1.3,5.6,4.7,5.6c2.5,0,3.9-1.5,4.5-3.6h1.7c-0.7,3.2-2.6,5.1-6.2,5.1
		c-4.5,0-6.4-3.5-6.4-7.5c0-3.7,1.9-7.5,6.4-7.5c4.6,0,6.4,4,6.2,8H122.4z M131.6,246.2c-0.1-2.6-1.7-5.1-4.5-5.1
		c-2.8,0-4.4,2.5-4.7,5.1H131.6z"/>
	<path class="st0" d="M136.7,234.6h1.7v2.8h-1.7V234.6z M136.7,240.1h1.7v14.2h-1.7V240.1z"/>
	<path class="st0" d="M142.8,234.6h1.7v8.1h0.1c0.7-2,2.8-3.1,4.9-3.1c4.3,0,6.4,3.5,6.4,7.5c0,4-2.1,7.5-6.4,7.5
		c-2.3,0-4.3-1.2-5.1-3.1h-0.1v2.7h-1.6V234.6z M149.5,241.1c-3.7,0-5,3.1-5,6.1c0,2.9,1.3,6,5,6c3.3,0,4.6-3.1,4.6-6
		C154.2,244.2,152.8,241.1,149.5,241.1z"/>
	<path class="st0" d="M159.6,240.1h1.7v2.4h0.1c0.6-1.7,2.5-2.9,4.5-2.9c4,0,5.2,2.1,5.2,5.5v9.1h-1.7v-8.9c0-2.4-0.8-4.3-3.6-4.3
		c-2.8,0-4.4,2.1-4.5,4.9v8.3h-1.7V240.1z"/>
	<path class="st0" d="M175.5,234.6h1.7v2.8h-1.7V234.6z M175.5,240.1h1.7v14.2h-1.7V240.1z"/>
	<path class="st0" d="M182.4,252.8h9.8v1.5h-11.9v-1.4l9.3-11.3H181v-1.5h10.8v1.2L182.4,252.8z"/>
	<path class="st0" d="M195.4,247.5v-1.6h6.9v1.6H195.4z"/>
	<path class="st0" d="M207.1,234.6h1.9v19.6h-1.9V234.6z"/>
	<path class="st0" d="M213.7,240.1h1.7v2.4h0.1c0.6-1.7,2.5-2.9,4.5-2.9c4,0,5.2,2.1,5.2,5.5v9.1h-1.7v-8.9c0-2.4-0.8-4.3-3.6-4.3
		c-2.8,0-4.4,2.1-4.5,4.9v8.3h-1.7V240.1z"/>
	<path class="st0" d="M238,244.2c-0.1-2.1-1.7-3.1-3.7-3.1c-1.5,0-3.4,0.6-3.4,2.4c0,1.5,1.8,2.1,2.9,2.4l2.3,0.5c2,0.3,4,1.5,4,3.9
		c0,3.1-3.1,4.3-5.7,4.3c-3.3,0-5.6-1.5-5.8-5h1.7c0.1,2.3,1.9,3.5,4.2,3.5c1.6,0,3.9-0.7,3.9-2.7c0-1.6-1.5-2.2-3.1-2.6l-2.2-0.5
		c-2.3-0.6-4-1.4-4-3.8c0-2.9,2.8-4,5.3-4c2.8,0,5.1,1.5,5.2,4.6H238z"/>
	<path class="st0" d="M246.6,240.1h2.9v1.5h-2.9v9.6c0,1.1,0.2,1.8,1.4,1.9c0.5,0,1,0,1.5-0.1v1.5c-0.5,0-1,0.1-1.5,0.1
		c-2.3,0-3.1-0.8-3.1-3.2v-9.7h-2.5v-1.5h2.5v-4.3h1.7V240.1z"/>
	<path class="st0" d="M253,234.6h1.7v2.8H253V234.6z M253,240.1h1.7v14.2H253V240.1z"/>
	<path class="st0" d="M261.9,240.1h2.9v1.5h-2.9v9.6c0,1.1,0.2,1.8,1.4,1.9c0.5,0,1,0,1.5-0.1v1.5c-0.5,0-1,0.1-1.5,0.1
		c-2.3,0-3.1-0.8-3.1-3.2v-9.7h-2.5v-1.5h2.5v-4.3h1.7V240.1z"/>
	<path class="st0" d="M279.8,254.3h-1.6v-2.6h-0.1c-0.9,1.9-2.8,3-4.9,3c-3.6,0-5-2.1-5-5.4v-9.2h1.7v9.2c0.1,2.6,1,3.9,3.8,3.9
		c3,0,4.3-2.8,4.3-5.7v-7.5h1.7V254.3z"/>
	<path class="st0" d="M286.9,240.1h2.9v1.5h-2.9v9.6c0,1.1,0.2,1.8,1.4,1.9c0.5,0,1,0,1.5-0.1v1.5c-0.5,0-1,0.1-1.5,0.1
		c-2.3,0-3.1-0.8-3.1-3.2v-9.7h-2.5v-1.5h2.5v-4.3h1.7V240.1z"/>
	<path class="st0" d="M307.5,241.5h-2.8v12.7h-1.7v-12.7h-2.4v-1.5h2.4v-1.3c0-2.4,0.7-4.2,3.4-4.2c0.5,0,0.9,0,1.5,0.1v1.5
		c-0.5-0.1-0.9-0.1-1.3-0.1c-1.9,0-1.9,1.2-1.9,2.8v1.2h2.8V241.5z"/>
	<path class="st0" d="M321.7,254.3h-1.6v-2.6H320c-0.9,1.9-2.8,3-4.9,3c-3.6,0-5-2.1-5-5.4v-9.2h1.7v9.2c0.1,2.6,1,3.9,3.8,3.9
		c3,0,4.3-2.8,4.3-5.7v-7.5h1.7V254.3z M312.5,237.6v-2.8h1.9v2.8H312.5z M317.4,237.6v-2.8h1.9v2.8H317.4z"/>
	<path class="st0" d="M326,240.1h1.6v3.3h0.1c0.9-2.3,2.8-3.6,5.4-3.5v1.7c-3.1-0.2-5.3,2.1-5.3,5.1v7.6H326V240.1z"/>
	<path class="st0" d="M361.5,254.3h-1.3l-0.2-3.6h-0.1c-1.3,2.8-4,4-6.8,4c-6.2,0-9.3-4.9-9.3-10.2c0-5.4,3.1-10.2,9.3-10.2
		c4.1,0,7.5,2.2,8.2,6.5h-1.9c-0.2-2.3-2.6-4.9-6.3-4.9c-5.2,0-7.4,4.3-7.4,8.6c0,4.3,2.2,8.6,7.4,8.6c4.3,0,6.9-3.1,6.8-7.2h-6.7
		v-1.6h8.3V254.3z"/>
	<path class="st0" d="M365.8,234.6h1.7v19.6h-1.7V234.6z"/>
	<path class="st0" d="M384.6,247.2c0,4.1-2.4,7.5-6.7,7.5c-4.3,0-6.7-3.4-6.7-7.5c0-4.1,2.4-7.5,6.7-7.5
		C382.3,239.7,384.6,243.1,384.6,247.2z M373,247.2c0,3,1.6,6,5,6c3.3,0,5-3,5-6c0-3-1.7-6.1-5-6.1C374.6,241.1,373,244.1,373,247.2
		z"/>
	<path class="st0" d="M388.3,234.6h1.7v8.1h0.1c0.7-2,2.8-3.1,4.9-3.1c4.3,0,6.4,3.5,6.4,7.5c0,4-2.1,7.5-6.4,7.5
		c-2.3,0-4.3-1.2-5.1-3.1h-0.1v2.7h-1.6V234.6z M395,241.1c-3.7,0-5,3.1-5,6.1c0,2.9,1.3,6,5,6c3.3,0,4.6-3.1,4.6-6
		C399.6,244.2,398.3,241.1,395,241.1z"/>
	<path class="st0" d="M404.9,244.4c0.2-3.3,2.5-4.8,5.7-4.8c2.5,0,5.2,0.8,5.2,4.6v7.5c0,0.7,0.3,1,1,1c0.2,0,0.4-0.1,0.6-0.1v1.5
		c-0.4,0.1-0.7,0.1-1.1,0.1c-1.8,0-2-1-2-2.5h-0.1c-1.2,1.8-2.4,2.9-5.2,2.9c-2.6,0-4.8-1.3-4.8-4.2c0-4,3.9-4.1,7.6-4.6
		c1.4-0.2,2.2-0.4,2.2-1.9c0-2.3-1.7-2.9-3.7-2.9c-2.1,0-3.7,1-3.8,3.3H404.9z M414.2,246.5L414.2,246.5c-0.3,0.4-1,0.5-1.5,0.6
		c-2.9,0.5-6.6,0.5-6.6,3.3c0,1.7,1.5,2.8,3.2,2.8c2.6,0,5-1.7,4.9-4.5V246.5z"/>
	<path class="st0" d="M420.4,234.6h1.7v19.6h-1.7V234.6z"/>
	<path class="st0" d="M427.6,247.6c0,2.5,1.3,5.6,4.7,5.6c2.5,0,3.9-1.5,4.5-3.6h1.7c-0.7,3.2-2.6,5.1-6.2,5.1
		c-4.5,0-6.4-3.5-6.4-7.5c0-3.7,1.9-7.5,6.4-7.5c4.6,0,6.4,4,6.2,8H427.6z M436.8,246.2c-0.1-2.6-1.7-5.1-4.5-5.1
		c-2.8,0-4.4,2.5-4.7,5.1H436.8z"/>
	<path class="st0" d="M462.1,254.3h-1.6v-2.6h-0.1c-0.9,1.9-2.8,3-4.9,3c-3.6,0-5-2.1-5-5.4v-9.2h1.7v9.2c0.1,2.6,1,3.9,3.8,3.9
		c3,0,4.3-2.8,4.3-5.7v-7.5h1.7V254.3z"/>
	<path class="st0" d="M466.3,240.1h1.7v2.4h0.1c0.6-1.7,2.5-2.9,4.5-2.9c4,0,5.2,2.1,5.2,5.5v9.1h-1.7v-8.9c0-2.4-0.8-4.3-3.6-4.3
		c-2.8,0-4.4,2.1-4.5,4.9v8.3h-1.7V240.1z"/>
	<path class="st0" d="M494.7,254.3h-1.6v-2.7H493c-0.7,1.8-3,3.1-5.1,3.1c-4.3,0-6.4-3.5-6.4-7.5c0-4,2.1-7.5,6.4-7.5
		c2.1,0,4.2,1.1,4.9,3.1h0.1v-8.1h1.7V254.3z M488,253.2c3.7,0,5-3.1,5-6c0-2.9-1.3-6.1-5-6.1c-3.3,0-4.6,3.1-4.6,6.1
		C483.3,250.1,484.7,253.2,488,253.2z"/>
	<path class="st0" d="M508,234.6h9c3.2,0,6,1.6,6,5.1c0,2.5-1.3,4.5-3.8,5v0.1c2.6,0.3,3.3,2.1,3.4,4.4c0.1,1.3,0.1,4,0.9,5h-2.1
		c-0.5-0.8-0.5-2.2-0.5-3.1c-0.2-2.8-0.4-5.8-3.9-5.7h-7.1v8.7H508V234.6z M509.9,244h7c2.3,0,4.2-1.4,4.2-3.8
		c0-2.4-1.4-3.9-4.2-3.9h-7V244z"/>
	<path class="st0" d="M528.1,247.6c0,2.5,1.3,5.6,4.7,5.6c2.5,0,3.9-1.5,4.5-3.6h1.7c-0.7,3.2-2.6,5.1-6.2,5.1
		c-4.5,0-6.4-3.5-6.4-7.5c0-3.7,1.9-7.5,6.4-7.5c4.6,0,6.4,4,6.2,8H528.1z M537.3,246.2c-0.1-2.6-1.7-5.1-4.5-5.1
		c-2.8,0-4.4,2.5-4.7,5.1H537.3z"/>
	<path class="st0" d="M554.4,253.1c0,4.2-1.6,6.8-6.3,6.8c-2.8,0-5.6-1.3-5.9-4.3h1.7c0.4,2.1,2.2,2.8,4.2,2.8
		c3.2,0,4.6-1.9,4.6-5.4v-1.9h-0.1c-0.8,1.7-2.5,2.9-4.5,2.9c-4.5,0-6.4-3.2-6.4-7.3c0-3.9,2.3-7.2,6.4-7.2c2.1,0,3.8,1.3,4.5,2.9
		h0.1v-2.4h1.7V253.1z M552.7,247c0-2.8-1.3-5.9-4.6-5.9c-3.3,0-4.7,2.9-4.7,5.9c0,2.9,1.5,5.6,4.7,5.6
		C551.1,252.6,552.7,249.9,552.7,247z"/>
	<path class="st0" d="M558.8,234.6h1.7v2.8h-1.7V234.6z M558.8,240.1h1.7v14.2h-1.7V240.1z"/>
	<path class="st0" d="M577.6,247.2c0,4.1-2.4,7.5-6.7,7.5c-4.3,0-6.7-3.4-6.7-7.5c0-4.1,2.4-7.5,6.7-7.5
		C575.2,239.7,577.6,243.1,577.6,247.2z M565.9,247.2c0,3,1.6,6,5,6c3.3,0,5-3,5-6c0-3-1.6-6.1-5-6.1
		C567.5,241.1,565.9,244.1,565.9,247.2z"/>
	<path class="st0" d="M581.2,240.1h1.7v2.4h0.1c0.6-1.7,2.5-2.9,4.5-2.9c4,0,5.2,2.1,5.2,5.5v9.1H591v-8.9c0-2.4-0.8-4.3-3.6-4.3
		c-2.8,0-4.4,2.1-4.5,4.9v8.3h-1.7V240.1z"/>
	<path class="st0" d="M596.9,244.4c0.2-3.3,2.5-4.8,5.7-4.8c2.5,0,5.2,0.8,5.2,4.6v7.5c0,0.7,0.3,1,1,1c0.2,0,0.4-0.1,0.6-0.1v1.5
		c-0.4,0.1-0.7,0.1-1.1,0.1c-1.8,0-2-1-2-2.5h-0.1c-1.2,1.8-2.4,2.9-5.2,2.9c-2.6,0-4.8-1.3-4.8-4.2c0-4,3.9-4.1,7.6-4.6
		c1.4-0.2,2.2-0.4,2.2-1.9c0-2.3-1.7-2.9-3.7-2.9c-2.1,0-3.7,1-3.8,3.3H596.9z M606.1,246.5L606.1,246.5c-0.3,0.4-1,0.5-1.5,0.6
		c-2.9,0.5-6.6,0.5-6.6,3.3c0,1.7,1.5,2.8,3.2,2.8c2.6,0,5-1.7,4.9-4.5V246.5z"/>
	<path class="st0" d="M612.4,234.6h1.7v19.6h-1.7V234.6z"/>
	<path class="st0" d="M619.5,247.6c0,2.5,1.3,5.6,4.7,5.6c2.5,0,3.9-1.5,4.5-3.6h1.7c-0.7,3.2-2.6,5.1-6.2,5.1
		c-4.5,0-6.4-3.5-6.4-7.5c0-3.7,1.9-7.5,6.4-7.5c4.6,0,6.4,4,6.2,8H619.5z M628.7,246.2c-0.1-2.6-1.7-5.1-4.5-5.1
		c-2.8,0-4.4,2.5-4.7,5.1H628.7z"/>
	<path class="st0" d="M643.7,247.8c-0.1,4,2.8,5.3,6.4,5.3c2.1,0,5.2-1.1,5.2-4c0-2.2-2.2-3.1-4-3.5l-4.4-1.1
		c-2.3-0.6-4.4-1.7-4.4-4.7c0-1.9,1.2-5.5,6.8-5.5c3.9,0,7.3,2.1,7.3,6.1h-1.9c-0.1-3-2.6-4.5-5.4-4.5c-2.6,0-4.9,1-4.9,3.9
		c0,1.8,1.4,2.6,3,3l4.8,1.2c2.8,0.7,5.1,2,5.1,5.2c0,1.3-0.5,5.6-7.5,5.6c-4.6,0-8.1-2.1-7.8-6.9H643.7z"/>
	<path class="st0" d="M663.6,240.1h2.9v1.5h-2.9v9.6c0,1.1,0.2,1.8,1.4,1.9c0.5,0,1,0,1.5-0.1v1.5c-0.5,0-1,0.1-1.5,0.1
		c-2.3,0-3.1-0.8-3.1-3.2v-9.7h-2.5v-1.5h2.5v-4.3h1.7V240.1z"/>
	<path class="st0" d="M681.5,254.3h-1.6v-2.6h-0.1c-0.9,1.9-2.8,3-4.9,3c-3.6,0-5-2.1-5-5.4v-9.2h1.7v9.2c0.1,2.6,1,3.9,3.8,3.9
		c3,0,4.3-2.8,4.3-5.7v-7.5h1.7V254.3z"/>
	<path class="st0" d="M698.3,254.3h-1.6v-2.7h-0.1c-0.7,1.8-3,3.1-5.1,3.1c-4.3,0-6.4-3.5-6.4-7.5c0-4,2.1-7.5,6.4-7.5
		c2.1,0,4.2,1.1,4.9,3.1h0.1v-8.1h1.7V254.3z M691.6,253.2c3.7,0,5-3.1,5-6c0-2.9-1.3-6.1-5-6.1c-3.3,0-4.6,3.1-4.6,6.1
		C687,250.1,688.3,253.2,691.6,253.2z"/>
	<path class="st0" d="M702.7,234.6h1.7v2.8h-1.7V234.6z M702.7,240.1h1.7v14.2h-1.7V240.1z"/>
	<path class="st0" d="M709.8,247.6c0,2.5,1.3,5.6,4.7,5.6c2.5,0,3.9-1.5,4.5-3.6h1.7c-0.7,3.2-2.6,5.1-6.2,5.1
		c-4.5,0-6.4-3.5-6.4-7.5c0-3.7,1.9-7.5,6.4-7.5c4.6,0,6.4,4,6.2,8H709.8z M719,246.2c-0.1-2.6-1.7-5.1-4.5-5.1
		c-2.8,0-4.4,2.5-4.7,5.1H719z"/>
	<path class="st0" d="M724.1,240.1h1.7v2.4h0.1c0.6-1.7,2.5-2.9,4.5-2.9c4,0,5.2,2.1,5.2,5.5v9.1h-1.7v-8.9c0-2.4-0.8-4.3-3.6-4.3
		c-2.8,0-4.4,2.1-4.5,4.9v8.3h-1.7V240.1z"/>
</g>
</svg>
